<?xml version="1.0" encoding="utf-8"?>
<!-- Generator: Adobe Illustrator 16.0.0, SVG Export Plug-In . SVG Version: 6.00 Build 0)  -->
<!DOCTYPE svg PUBLIC "-//W3C//DTD SVG 1.1//EN" "http://www.w3.org/Graphics/SVG/1.1/DTD/svg11.dtd">
<svg version="1.1" id="arrow" xmlns="http://www.w3.org/2000/svg" xmlns:xlink="http://www.w3.org/1999/xlink" x="0px" y="0px"
	 width="154.001px" height="54px" viewBox="-0.084 8.98 154.001 54" enable-background="new -0.084 8.98 154.001 54"
	 xml:space="preserve">
<title>ctaArrow</title>
<path d="M151.942,54.064c-0.076-0.051-0.149-0.096-0.185-0.115L78.633,9.491c-0.529-0.329-1.126-0.506-1.749-0.511
	c-0.594,0-1.186,0.167-1.722,0.489L2.021,53.938c-1.699,1.034-2.516,3.531-1.901,5.809c0.524,1.942,1.948,3.197,3.628,3.197
	c0.599,0,1.196-0.171,1.726-0.493L76.889,19.03l71.341,43.374c0.564,0.377,1.206,0.576,1.856,0.576c1.629,0,3.037-1.2,3.587-3.055
	C154.34,57.692,153.597,55.173,151.942,54.064z"/>
</svg>
