<svg id="Layer_1" data-name="Layer 1" xmlns="http://www.w3.org/2000/svg" viewBox="0 0 100 100">
  <title>EDI-Icons</title>
  <g id="physical">
    <path d="M50.22,87l-16-5.78V63.26c-2-2.16-25.4-27.74-26.36-28.7-0.73-.73-1.32-2.91-1-4.87a4.15,4.15,0,0,1,2.24-3.24A4.61,4.61,0,0,1,12.78,26c1.87,0.71,2.8,2.91,3.8,5.23A15.55,15.55,0,0,0,19,35.68C22,38.9,38.66,48.6,41.1,50l2.2-1.76a16.34,16.34,0,0,1-9.09-14.85A16.11,16.11,0,0,1,50.3,16.92c9.12,0,16.83,7.54,16.83,16.48A16.84,16.84,0,0,1,57.37,48.2L60.18,50c2.28-1.44,18.23-11.58,21.23-14.81h0a22.92,22.92,0,0,0,2.71-4.07c1.43-2.5,2.78-4.87,4.75-5.32a3.56,3.56,0,0,1,2.84.68,4.88,4.88,0,0,1,2,3.7,6.18,6.18,0,0,1-1,4.35c-1,1-23.53,26.56-25.43,28.71V81.21Zm-15-6.49,15,5.42,16-5.43V62.88l0.13-.14c1-1.14,24.58-27.89,25.59-28.9a5.33,5.33,0,0,0,.75-3.55,3.92,3.92,0,0,0-1.52-3,2.57,2.57,0,0,0-2.05-.54c-1.54.36-2.84,2.64-4.1,4.84a23.56,23.56,0,0,1-2.84,4.26h0c-3.31,3.56-21,14.68-21.7,15.15l-0.27.17L55.26,48l0.88-.37c6-2.5,10-8.23,10-14.27,0-8.39-7.25-15.48-15.83-15.48A15.12,15.12,0,0,0,35.21,33.39a15.3,15.3,0,0,0,9.24,14.27L45.22,48l-4,3.23L40.89,51c-0.79-.45-19.3-11.11-22.61-14.68a16.25,16.25,0,0,1-2.63-4.7c-0.91-2.13-1.76-4.14-3.23-4.69a3.69,3.69,0,0,0-2.91.39,3.25,3.25,0,0,0-1.68,2.51,5.68,5.68,0,0,0,.7,4c1,1,25.48,27.74,26.52,28.87l0.13,0.14V80.5Z" style="fill: #00904c"/>
  </g>
</svg>
