<svg id="Layer_1" data-name="Layer 1" xmlns="http://www.w3.org/2000/svg" viewBox="0 0 100 100">
  <title>EDI-Icons</title>
  <g id="language">
    <path d="M50.73,80.43a0.52,0.52,0,0,1-.28-0.09c-17-10.37-36.9-.08-37.1,0a0.56,0.56,0,0,1-.83-0.5L12.3,31.54A0.56,0.56,0,0,1,12.59,31c17.94-10.14,36.48-.11,36.66,0a0.56,0.56,0,0,1,.29.49V71.95a0.56,0.56,0,0,1-1.13,0V31.88c-2.38-1.2-18.9-8.9-35,0L13.64,79c4-1.84,21.69-9,37.15.26L51.26,79c15.58-8.33,27.6-5.06,35.18-.55l0.14-46.76C84.62,30.3,69.91,20.77,53,32a0.56,0.56,0,0,1-.62-0.94,30.7,30.7,0,0,1,35.12-.16,0.56,0.56,0,0,1,.22.45L87.56,79.44a0.56,0.56,0,0,1-.86.47c-7.26-4.6-19.2-8.33-34.91.06A2.88,2.88,0,0,1,50.73,80.43Z" style="fill: #8b2388"/>
    <path d="M79.64,44.51a0.57,0.57,0,0,1-.25-0.06c-11.42-5.71-23-.06-23.11,0a0.56,0.56,0,1,1-.5-1c0.12-.06,12.2-6,24.11,0A0.56,0.56,0,0,1,79.64,44.51Z" style="fill: #8b2388"/>
    <path d="M79.64,54a0.56,0.56,0,0,1-.25-0.06c-11.42-5.71-23-.06-23.11,0a0.56,0.56,0,1,1-.5-1c0.12-.06,12.2-6,24.11,0A0.56,0.56,0,0,1,79.64,54Z" style="fill: #8b2388"/>
    <path d="M79.64,65.16a0.56,0.56,0,0,1-.25-0.06c-11.42-5.71-23-.06-23.11,0a0.56,0.56,0,1,1-.5-1c0.12-.06,12.2-6,24.11,0A0.56,0.56,0,0,1,79.64,65.16Z" style="fill: #8b2388"/>
  </g>
</svg>
