<svg id="Layer_1" data-name="Layer 1" xmlns="http://www.w3.org/2000/svg" viewBox="0 0 100 100">
  <title>EDI-Icons</title>
  <g id="communication">
    <path d="M15.44,85.72a8.5,8.5,0,0,1-3.11-.53,0.57,0.57,0,0,1,.16-1.08,4.3,4.3,0,0,0,3.76-2.8,4.57,4.57,0,0,0-.3-4.19,11.17,11.17,0,0,1-2.94-8c0-7.46,6.38-14,15.52-16a0.57,0.57,0,0,1,.67.44,0.57,0.57,0,0,1-.44.67c-8.61,1.85-14.63,8-14.63,14.9a10.1,10.1,0,0,0,2.64,7.26,5.64,5.64,0,0,1,.53,5.38,5.34,5.34,0,0,1-2.49,2.86,9.94,9.94,0,0,0,6.74-2.15c0.87-.65,1.26-0.64,1.89-0.3a24.3,24.3,0,0,0,10.66,2.41c11,0,20-6.93,20-15.45a12.35,12.35,0,0,0-1.33-5.55,0.57,0.57,0,1,1,1-.51,13.47,13.47,0,0,1,1.45,6.06c0,9.14-9.46,16.59-21.1,16.59A25.44,25.44,0,0,1,23,83.15L22.7,83a2.8,2.8,0,0,0-.48.31A11.23,11.23,0,0,1,15.44,85.72Z" style="fill: #b05e32"/>
    <path d="M85.53,64.61c-5.46,0-9.39-3.71-11.39-6.16a43.63,43.63,0,0,1-16.28,3.08C40,61.52,25.44,51.38,25.44,38.91S40,16.3,57.86,16.3,90.28,26.44,90.28,38.91c0,6.25-3.77,12.26-10.34,16.54a12.33,12.33,0,0,0,5.85,8.09A0.57,0.57,0,0,1,85.53,64.61ZM74.32,57.2a0.56,0.56,0,0,1,.45.22c1.85,2.36,4.76,5.11,8.66,5.86a13,13,0,0,1-4.66-8A0.57,0.57,0,0,1,79,54.7c6.44-4.07,10.14-9.83,10.14-15.78,0-11.84-14-21.48-31.29-21.48S26.57,27.07,26.57,38.91s14,21.48,31.29,21.48A42.37,42.37,0,0,0,74.1,57.24,0.56,0.56,0,0,1,74.32,57.2Z" style="fill: #b05e32"/>
    <path d="M44.83,50.86l-0.18,0c-5.46-1.78-8.86-4.55-10.09-8.23C32.68,37,36.48,31.44,36.64,31.21a0.57,0.57,0,0,1,.93.65c0,0.05-3.64,5.34-1.93,10.39,1.12,3.32,4.27,5.85,9.37,7.51A0.57,0.57,0,0,1,44.83,50.86Z" style="fill: #b05e32"/>
  </g>
</svg>
