<svg id="Layer_1" data-name="Layer 1" xmlns="http://www.w3.org/2000/svg" viewBox="0 0 100 100">
  <title>EDI-Icons</title>
  <g id="social">
    <path d="M52.17,86.53a0.61,0.61,0,0,1-.58-0.77c1.36-4.85,2.7-12.22,1.41-13.41a0.59,0.59,0,0,0-.7,0,3.56,3.56,0,0,1-3.43-.21,5.25,5.25,0,0,1-1.76-3.6c-1.76,1-6,2.76-12.2,1.15A13.68,13.68,0,0,1,24.5,57.76C22,57.48,11.75,55.55,11.87,42.6c1.38-16,16.26-18.26,18.25-18.49C31.7,22.69,44.59,11.79,58.88,21a21.91,21.91,0,0,1,16.58,4.08c5.36,4,7.12,12.34,7.46,14.22,1.67,0.63,8.2,3.83,8.48,15.13,0.27,10.85-8,14.22-10,14.87-0.16,1.71-1.06,7.9-6.11,10.88-6.6,3.89-11.7,1.75-13.82.46l0.07,1.64a0.6,0.6,0,0,1-.38.59L52.4,86.49A0.6,0.6,0,0,1,52.17,86.53ZM52.7,71a1.61,1.61,0,0,1,1.12.43c2,1.85.15,10-.75,13.44l7.28-3L60.24,79.5a0.6,0.6,0,0,1,.35-0.57,0.61,0.61,0,0,1,.67.1c0.22,0.2,5.53,4.82,13.46.15,5.19-3.05,5.54-10.24,5.54-10.32a0.61,0.61,0,0,1,.46-0.56c0.4-.1,9.75-2.5,9.47-13.79-0.29-11.8-7.9-14.1-8-14.12a0.61,0.61,0,0,1-.43-0.49c0-.1-1.52-9.71-7-13.79a20.85,20.85,0,0,0-15.84-3.82,0.61,0.61,0,0,1-.47-0.08C44,12.65,31.34,24.62,30.81,25.13a0.6,0.6,0,0,1-.38.17c-0.65,0-16,1.35-17.35,17.36-0.12,13.45,11.5,13.92,12,13.94a0.61,0.61,0,0,1,.59.59,12.35,12.35,0,0,0,9.55,11.31c7.58,2,12-1.49,12-1.52a0.6,0.6,0,0,1,.64-0.07,0.61,0.61,0,0,1,.34.55c0,0.76.21,2.9,1.32,3.68a2.43,2.43,0,0,0,2.31.06A2.39,2.39,0,0,1,52.7,71Z" style="fill: #0070b4"/>
    <path d="M30,51.23L23,43.44c-1.14-1.27-2.59-4.31.1-6.75a4.21,4.21,0,0,1,3.19-1.2A6.44,6.44,0,0,1,30,37.37a7.14,7.14,0,0,1,4.28-2,4.09,4.09,0,0,1,3,1.31c2.39,2.44.67,5.47-.57,6.74ZM26,36.69a3.06,3.06,0,0,0-2.1.89c-2.48,2.25-.12,4.93,0,5L30,49.4l5.84-6.77c0.14-.14,2.75-2.87.6-5.07a2.82,2.82,0,0,0-2.13-.95c-2,0-3.85,2-3.87,2l-0.47.5-0.44-.52a5.8,5.8,0,0,0-3.38-1.93H26Z" style="fill: #0070b4"/>
    <path d="M47.61,43.31l-7.07-7.79c-1.14-1.27-2.59-4.31.1-6.75a4.23,4.23,0,0,1,3.19-1.2,6.44,6.44,0,0,1,3.77,1.89,7.14,7.14,0,0,1,4.28-2h0.06a4,4,0,0,1,3,1.31c2.39,2.44.67,5.47-.57,6.74ZM43.55,28.77a3.06,3.06,0,0,0-2.1.89c-2.48,2.25-.12,4.93,0,5l6.15,6.77,5.84-6.77c0.14-.14,2.75-2.87.6-5.07a2.87,2.87,0,0,0-2.13-.95c-2,0-3.85,2-3.87,2l-0.47.5-0.44-.52a5.8,5.8,0,0,0-3.38-1.93H43.55Z" style="fill: #0070b4"/>
    <path d="M43.87,62.55L36.8,54.76c-1.14-1.27-2.59-4.31.1-6.75a4.22,4.22,0,0,1,3.19-1.2,6.44,6.44,0,0,1,3.77,1.89,7.14,7.14,0,0,1,4.28-2,4.1,4.1,0,0,1,3,1.31c2.39,2.44.67,5.47-.57,6.74ZM39.82,48a3.06,3.06,0,0,0-2.1.89c-2.48,2.25-.12,4.93,0,5l6.15,6.77,5.84-6.77c0.14-.14,2.75-2.87.6-5.07a2.84,2.84,0,0,0-2.09-.95h0c-2,0-3.85,2-3.87,2l-0.47.5-0.44-.52A5.8,5.8,0,0,0,40,48H39.82Z" style="fill: #0070b4"/>
  </g>
</svg>
