<svg id="Layer_1" data-name="Layer 1" xmlns="http://www.w3.org/2000/svg" viewBox="0 0 100 100">
  <title>EDI-Icons</title>
  <g id="emotional">
    <path d="M48.05,86.65a0.56,0.56,0,0,1-.41-0.18l-5.78-6.29q-0.24-.2-0.48-0.43l-5.65-6.24C28,65.13,19.17,55.44,17.5,53.55c-6.49-7.32-10-19.48,1.4-29.67C31.09,13,43.63,20,48.14,23.27c9.55-5.66,21.81-9.3,31.6-.06C88,31.63,88.12,43,80,53,62.91,73.9,50.72,84.77,48.39,86.53A0.56,0.56,0,0,1,48.05,86.65Zm-3.36-5,3.41,3.71c2.22-1.85,13.68-11.81,31-33.07C86.86,42.79,86.79,32,79,24c-9.15-8.63-20.69-5.35-29.85,0,0.49,0.39.76,0.63,0.78,0.65L71.72,46.6c0.09,0.07,3.11,2.61,3.28,5.76a5.17,5.17,0,0,1-1.61,4A5,5,0,0,1,69.72,58a6.28,6.28,0,0,1-2.8-.66c1.1,2,1.66,4.66-.26,6.81a5.24,5.24,0,0,1-6.58,1.2,5.55,5.55,0,0,1,.22,3.51,7.08,7.08,0,0,1-5,4.9,5.86,5.86,0,0,1-3.6-.17,5.75,5.75,0,0,1-1.31,6.26A6.18,6.18,0,0,1,44.69,81.6Zm-2-2.23a5,5,0,0,0,7-.35c1.67-1.71,2.22-4.53-.31-7l-2.09-2.37C43,65.1,39.08,60.44,39,60.38a0.56,0.56,0,0,1,.85-0.73L48,68.87c0.7,0.77,1.41,1.53,2.12,2.27A4.87,4.87,0,0,0,55,72.64a5.93,5.93,0,0,0,4.19-4.1,4.86,4.86,0,0,0-1.61-4.84C56.15,62.46,47.17,53.38,46.78,53a0.56,0.56,0,0,1,.8-0.79c0.06,0.06,5.67,5.74,10.79,10.66,2.08,1.73,5.05,3.21,7.47.5,2.83-3.17-1.35-7.55-1.39-7.59L54.36,46a0.56,0.56,0,0,1,.78-0.81L65,54.62a7.5,7.5,0,0,0,4.73,2.22h0a3.94,3.94,0,0,0,2.86-1.29,4.1,4.1,0,0,0,1.3-3.14c-0.14-2.66-2.89-5-2.92-5l-21.85-22c-0.08-.08-0.44-0.39-1-0.85A76,76,0,0,0,37,33c-0.84.76-.49,1.14-0.32,1.33,1.7,1.88,10.9,2.37,16.22-2.44l0.75,0.83c-5.79,5.22-15.61,4.78-17.8,2.36-0.79-.88-0.64-2,0.4-2.91a77.52,77.52,0,0,1,10.89-8.28c-4.52-3.22-16-9.39-27.48.83-10.8,9.64-7.46,21.16-1.31,28.09,1.2,1.35,6.09,6.7,11.6,12.71l0,0,6.53,7.22Z" style="fill: #6950a1"/>
  </g>
</svg>
