<?xml version="1.0" encoding="utf-8"?>
<!-- Generator: Adobe Illustrator 16.0.0, SVG Export Plug-In . SVG Version: 6.00 Build 0)  -->
<!DOCTYPE svg PUBLIC "-//W3C//DTD SVG 1.1//EN" "http://www.w3.org/Graphics/SVG/1.1/DTD/svg11.dtd">
<svg version="1.1" id="Layer_1" xmlns="http://www.w3.org/2000/svg" xmlns:xlink="http://www.w3.org/1999/xlink" x="0px" y="0px"
	 width="283.487px" height="146.416px" viewBox="0 0 283.487 146.416" enable-background="new 0 0 283.487 146.416"
	 xml:space="preserve">
<path style="fill: #ffffff" d="M157.491,145.728v-32.53h13.413c3.403,0,5.954,0.708,7.585,2.101c1.66,1.415,2.531,3.612,2.593,6.53
	c0.055,2.248-0.557,4.149-1.817,5.648c-0.85,1.007-1.956,1.798-3.297,2.367c0.473,0.154,0.903,0.338,1.283,0.547
	c0.9,0.499,1.614,1.168,2.119,1.994c0.479,0.808,0.802,1.757,0.952,2.821c0.151,1.022,0.232,2.19,0.232,3.464
	c0,0.264,0.16,6.354,0.16,6.428v0.617h-2.148c0,0-0.122-6.909-0.122-7.18c0-1.206-0.094-2.325-0.28-3.329
	c-0.164-0.888-0.508-1.644-1.022-2.245c-0.519-0.611-1.245-1.068-2.227-1.399c-1.013-0.345-2.405-0.518-4.14-0.518h-11.175v14.684
	H157.491z M170.686,128.939c1.109,0,2.155-0.138,3.194-0.424c0.968-0.264,1.847-0.698,2.611-1.29
	c0.747-0.596,1.339-1.325,1.802-2.229c0.447-0.881,0.672-1.975,0.672-3.245c-0.022-2.062-0.62-3.616-1.823-4.741
	c-1.193-1.13-3.217-1.699-6.019-1.699h-11.522v13.629H170.686z M47.669,62.41V0H44.65v28.415H3.165V0H0.148v62.41h3.017V31.427
	H44.65V62.41H47.669z M96.107,57.673c3.932-4.045,5.925-10.331,5.925-18.681V0h-3.021v38.992c0,7.164-1.647,12.663-4.896,16.347
	c-3.204,3.653-8.306,5.504-15.162,5.504c-6.858,0-11.961-1.851-15.167-5.505c-3.249-3.685-4.896-9.184-4.896-16.346V0h-3.019v38.992
	c0,8.348,1.993,14.633,5.925,18.679c3.921,4.053,9.693,6.108,17.156,6.108C86.407,63.78,92.18,61.725,96.107,57.673z M169.293,62.41
	V0h-3.908l-25.499,58.103L114.378,0h-3.903v62.41h3.012V5.491l25.032,56.919h2.734L166.27,5.528V62.41H169.293z M223.925,62.41
	l-8.042-20.109h-30.275l-8.132,20.109h-3.287L199.452,0h3.104l24.646,62.41H223.925z M214.677,39.279L200.993,3.919l-14.18,35.359
	H214.677z M280.416,62.41V0h-3.018v57.807L236.463,0h-3.563v62.41h3.011V4.585l40.954,57.824H280.416z M0,145.728v-32.53h13.283
	c3.146,0,5.642,0.775,7.417,2.307c1.798,1.551,2.71,3.86,2.71,6.861c0,1.45-0.27,2.77-0.803,3.921
	c-0.531,1.139-1.278,2.11-2.223,2.889c-0.92,0.756-2.047,1.338-3.352,1.737c-1.264,0.379-2.673,0.572-4.191,0.572H2.107v14.243H0z
	 M13.283,129.371c1.156,0,2.242-0.158,3.229-0.473c0.97-0.312,1.822-0.772,2.531-1.374c0.701-0.595,1.258-1.328,1.653-2.181
	c0.396-0.836,0.597-1.837,0.597-2.979c0-2.329-0.63-4.044-1.927-5.243c-1.292-1.203-3.339-1.812-6.084-1.812H2.107v14.061H13.283z
	 M43.648,145.728l-4.114-10.3H24.41l-4.164,10.3h-2.291l13.165-32.53h1.977l12.846,32.53H43.648z M38.698,133.317l-6.602-17.051
	l-6.835,17.051H38.698z M48.047,145.728v-32.53h13.416c3.403,0,5.957,0.708,7.589,2.101c1.652,1.415,2.522,3.612,2.586,6.53
	c0.06,2.248-0.553,4.149-1.817,5.648c-0.846,1.007-1.951,1.798-3.295,2.367c0.476,0.154,0.904,0.338,1.283,0.547
	c0.906,0.502,1.62,1.171,2.12,1.997c0.484,0.812,0.804,1.757,0.956,2.818c0.151,1.01,0.227,2.175,0.227,3.464
	c0,0.264,0.164,6.354,0.164,6.428v0.617h-2.146v-0.617c0-0.171-0.132-6.292-0.132-6.562c0-1.251-0.093-2.371-0.276-3.326
	c-0.166-0.9-0.512-1.656-1.024-2.245c-0.515-0.614-1.24-1.071-2.225-1.402c-1.012-0.345-2.404-0.518-4.138-0.518H50.157v14.684
	H48.047z M61.24,128.939c1.099,0,2.173-0.141,3.194-0.424c0.973-0.264,1.851-0.698,2.613-1.287c0.743-0.592,1.353-1.345,1.803-2.229
	c0.447-0.888,0.674-1.981,0.674-3.248c-0.027-2.062-0.624-3.616-1.822-4.741c-1.192-1.13-3.218-1.699-6.021-1.699H50.157v13.629
	H61.24z M84.788,145.728v-30.417h11.262v-2.113H71.458v2.113h11.22v30.417H84.788z M123.452,145.728v-32.53h-2.107v28.998
	l-20.543-28.998h-2.25v32.53h2.117v-28.991l20.534,28.991H123.452z M152.653,145.728v-2.113h-20.069v-13.751h18.712v-2.11h-18.712
	v-12.442h19.901v-2.113h-22.011v32.53H152.653z M201.987,145.937c1.373-0.315,2.638-0.846,3.75-1.576
	c1.119-0.733,2.036-1.673,2.731-2.802c0.697-1.145,1.055-2.538,1.055-4.137c0-1.743-0.318-3.158-0.939-4.207
	c-0.604-1.042-1.45-1.897-2.509-2.541c-0.987-0.602-2.184-1.097-3.558-1.47c-1.3-0.354-2.68-0.715-4.156-1.098
	c-1.344-0.331-2.666-0.64-3.956-0.923c-1.206-0.271-2.316-0.666-3.291-1.174c-0.916-0.479-1.669-1.116-2.245-1.889
	c-0.54-0.721-0.813-1.73-0.813-3.001c0-1.273,0.271-2.329,0.811-3.14c0.553-0.836,1.277-1.518,2.146-2.026
	c0.875-0.512,1.875-0.878,2.976-1.087c1.122-0.213,2.22-0.318,3.268-0.318c1.329,0,2.605,0.142,3.796,0.424
	c1.136,0.268,2.126,0.725,2.943,1.358c0.823,0.633,1.486,1.46,1.972,2.457c0.502,1.014,0.785,2.294,0.837,3.802l0.022,0.596h2.119
	l-0.035-0.65c-0.094-1.833-0.453-3.409-1.068-4.68c-0.633-1.312-1.485-2.377-2.528-3.162c-1.022-0.785-2.248-1.367-3.638-1.728
	c-1.325-0.348-2.812-0.524-4.42-0.524c-1.303,0-2.621,0.139-3.921,0.405c-1.338,0.28-2.561,0.746-3.632,1.39
	c-1.103,0.656-2.014,1.557-2.705,2.68c-0.701,1.139-1.058,2.551-1.058,4.204c0,1.647,0.347,3.008,1.025,4.037
	c0.663,1.029,1.551,1.865,2.642,2.486c1.048,0.592,2.241,1.062,3.544,1.396c1.262,0.321,2.528,0.63,3.776,0.913
	c1.203,0.303,2.458,0.582,3.767,0.858c1.248,0.273,2.391,0.673,3.397,1.181c0.987,0.499,1.795,1.171,2.409,2.008
	c0.607,0.811,0.913,1.949,0.913,3.381c0,1.216-0.27,2.271-0.801,3.133c-0.557,0.891-1.258,1.604-2.146,2.178
	c-0.933,0.582-1.969,1.003-3.085,1.251c-1.167,0.267-2.351,0.402-3.516,0.402c-1.618,0-3.104-0.177-4.423-0.524
	c-1.296-0.345-2.429-0.9-3.364-1.66c-0.927-0.753-1.657-1.743-2.165-2.943c-0.518-1.199-0.778-2.718-0.778-4.513v-0.617h-2.107
	l-0.01,0.61c-0.025,2.068,0.28,3.863,0.907,5.337c0.634,1.482,1.548,2.718,2.719,3.677c1.161,0.939,2.547,1.634,4.127,2.065
	c1.579,0.431,3.245,0.64,5.095,0.64C199.25,146.416,200.636,146.255,201.987,145.937z M239.767,145.728v-32.53h-2.116v14.556
	h-20.677v-14.556h-2.11v32.53h2.11v-15.864h20.677v15.864H239.767z M250.388,145.638V113.11h-2.109v32.527H250.388z
	 M259.105,145.728v-32.53h13.291c3.143,0,5.639,0.775,7.414,2.307c1.799,1.551,2.712,3.86,2.712,6.861
	c0,1.438-0.271,2.753-0.804,3.918c-0.557,1.184-1.287,2.129-2.239,2.895c-0.9,0.75-2.026,1.335-3.332,1.734
	c-1.268,0.379-2.677,0.572-4.195,0.572h-10.73v14.243H259.105z M272.396,129.371c1.161,0,2.245-0.158,3.22-0.473
	c0.987-0.312,1.814-0.763,2.531-1.374c0.718-0.604,1.274-1.338,1.66-2.178c0.398-0.849,0.599-1.853,0.599-2.981
	c0-2.326-0.631-4.04-1.927-5.246c-1.29-1.2-3.339-1.809-6.083-1.809h-11.175v14.061H272.396z M17.417,77.921H6.653v7.086h10.129
	v4.979H6.653v8.103h11.181v4.986H0.577V72.936h16.839V77.921z M34.748,72.936l7.977,30.139h-6.331l-1.396-6.376h-8.013l-1.393,6.376
	h-6.331l7.978-30.139H34.748z M33.947,91.717l-2.908-13.546h-0.09l-2.911,13.546H33.947z M56.557,72.918
	c2.535,0,4.5,0.642,5.906,1.922c1.412,1.278,2.11,3.228,2.11,5.843c0,2.026-0.405,3.68-1.222,4.96
	c-0.817,1.28-2.084,2.104-3.799,2.467v0.087c1.521,0.226,2.628,0.715,3.336,1.474c0.705,0.763,1.139,1.984,1.306,3.674
	c0.055,0.562,0.093,1.174,0.128,1.84c0.026,0.659,0.058,1.399,0.083,2.213c0.058,1.604,0.055,5.358,0.055,5.678h-6.028
	c-0.061-0.457,0.006-2.6-0.022-3.191l-0.161-5.777c-0.061-1.184-0.357-2.113-0.891-2.785c-0.531-0.676-1.435-1.017-2.702-1.017
	H51.41v12.751h-6.076V72.918H56.557z M53.938,86.084c1.463,0,2.589-0.341,3.374-1.032c0.792-0.688,1.187-1.85,1.187-3.48
	c0-2.789-1.406-4.179-4.223-4.179H51.41v8.691H53.938z M70.115,72.936h6.073v25.153h10.76v4.986H70.115V72.936z M94.591,84.585
	h0.083l4.22-11.649h6.584l-7.804,18.276v11.863h-6.083V91.212l-7.804-18.276h6.838L94.591,84.585z M116.03,72.936h6.08v25.153
	h10.759v4.986H116.03V72.936z M151.096,77.921h-10.764v7.086h10.127v4.979h-10.127v8.103h11.183v4.986h-17.266V72.936h16.847V77.921
	z M168.26,72.936l7.978,30.139h-6.324l-1.396-6.376h-8.022l-1.39,6.376h-6.337l7.984-30.139H168.26z M167.456,91.717l-2.908-13.546
	h-0.083l-2.915,13.546H167.456z M216.163,93.576h0.083v-20.64h5.571v30.139h-6.922l-7.424-21.108h-0.084v21.108h-5.578V72.936h7.006
	L216.163,93.576z M227.897,72.936h6.079v30.139h-6.079V72.936z M254.074,93.576h0.084v-20.64h5.571v30.139h-6.923l-7.431-21.108
	h-0.083v21.108h-5.571V72.936h7.006L254.074,93.576z M277.138,79.689c-0.129-0.592-0.334-1.132-0.617-1.624
	c-0.283-0.489-0.638-0.897-1.068-1.223c-0.443-0.325-0.972-0.485-1.589-0.485c-1.46,0-2.516,0.816-3.165,2.444
	c-0.644,1.634-0.972,4.336-0.972,8.106c0,1.798,0.058,3.435,0.174,4.896c0.109,1.464,0.315,2.708,0.611,3.737
	c0.296,1.023,0.714,1.808,1.268,2.361c0.546,0.547,1.254,0.823,2.129,0.823c0.36,0,0.766-0.1,1.203-0.299
	c0.438-0.193,0.843-0.485,1.223-0.885c0.379-0.396,0.694-0.895,0.945-1.496c0.258-0.607,0.386-1.318,0.386-2.136v-3.078h-4.008
	v-4.471h9.83v16.25h-4.471v-2.792h-0.091c-0.727,1.188-1.607,2.023-2.631,2.516c-1.029,0.489-2.258,0.74-3.699,0.74
	c-1.853,0-3.364-0.328-4.535-0.979c-1.171-0.644-2.085-1.641-2.741-2.994c-0.662-1.349-1.112-3.018-1.331-4.996
	c-0.226-1.987-0.335-4.288-0.335-6.902c0-2.532,0.161-4.755,0.482-6.669c0.322-1.913,0.882-3.512,1.673-4.791
	c0.785-1.28,1.827-2.244,3.12-2.89s2.908-0.971,4.851-0.971c3.32,0,5.713,0.823,7.174,2.469c1.467,1.648,2.2,4.003,2.2,7.068h-5.829
	C277.324,80.857,277.26,80.281,277.138,79.689z M189.606,72.918c2.534,0,4.503,0.642,5.905,1.922c1.409,1.278,2.11,3.228,2.11,5.843
	c0,2.026-0.405,3.68-1.223,4.96c-0.811,1.28-2.078,2.104-3.796,2.467v0.087c1.525,0.226,2.625,0.715,3.333,1.474
	c0.707,0.763,1.139,1.984,1.306,3.674c0.058,0.562,0.104,1.174,0.129,1.84c0.032,0.659,0.064,1.399,0.084,2.213
	c0.058,1.604,0.058,5.358,0.058,5.678h-6.028c-0.058-0.457,0.007-2.6-0.025-3.191l-0.161-5.777
	c-0.058-1.184-0.354-2.113-0.888-2.785c-0.534-0.676-1.435-1.017-2.702-1.017h-3.249v12.751h-6.079V72.918H189.606z M186.987,86.084
	c1.467,0,2.593-0.341,3.378-1.032c0.791-0.688,1.19-1.85,1.19-3.48c0-2.789-1.416-4.179-4.228-4.179h-2.869v8.691H186.987z"/>
</svg>
