<svg id="Layer_1" data-name="Layer 1" xmlns="http://www.w3.org/2000/svg" xmlns:xlink="http://www.w3.org/1999/xlink" viewBox="0 0 300 300">
  <defs>
    <clipPath id="clip-path">
      <rect x="-355.83" y="-271.92" width="1280" height="800" style="fill: none"/>
    </clipPath>
  </defs>
  <title>landing</title>
  <g>
    <g>
      <path d="M0.33,95.16V90.75l37.81-37c12.35-12.12,16-18.87,16-28.51,0-11.84-8.38-19.14-21.8-19.14-10.67,0-20,4.82-28.2,11.15L2.92,10.47C10.69,4.82,20.3.27,32.64,0.27c18.29,0,29,9.92,29,24.51,0,11.57-5.18,19.83-17.84,32.09L10.08,89.51H62.53l0.91,5.65H0.33Z" style="fill: #fff"/>
      <path d="M120.31,96.95c-23,0-36.44-19.83-36.44-48.2S97.44,0.27,120.46.27s36.44,19.83,36.44,48.2S143.33,96.95,120.31,96.95Zm0.15-90.89c-19.21,0-29.12,18.18-29.12,42.55s9.91,42.55,29.12,42.55c19.06,0,29-18.18,29-42.55S139.52,6.06,120.46,6.06Z" style="fill: #fff"/>
      <path d="M196.23,95.16V9l-22.71,8.68-1.07-5.51,25.76-10.6h5.18V95.16h-7.17Z" style="fill: #fff"/>
      <path d="M239.53,49.16c9.3-6.06,18.9-9.37,29.27-9.37,18.45,0,30.8,10.6,30.8,27.27,0,18.18-13.87,29.88-32.32,29.88-20.58,0-35.52-15.84-35.52-39.52,0-31,20.28-48.61,52-57.43l1.07,6.33C257.82,13.5,242.42,27.68,239.53,49.16Zm-0.46,6.75V57c0,20,11.89,34.29,28.36,34.29,15.09,0,24.55-9.64,24.55-24,0-12.53-8.23-21.76-23.93-21.76C257.36,45.58,247.76,50,239.07,55.91Z" style="fill: #fff"/>
    </g>
    <g>
      <g style="opacity: 0.550002992153168">
        <polygon points="123.83 120.5 0 120.5 0 300 126.42 300 126.42 263.84 48.38 263.84 48.38 225.08 112.31 225.08 105.98 189.44 48.38 189.44 48.38 156.4 123.83 156.4 123.83 120.5" style="fill: #fff"/>
      </g>
      <g style="opacity: 0.550002992153168">
        <path d="M168.14,120.5H99.6V300h69.69c67.1,0,104-36.68,104-90s-36-89.49-105.11-89.49m-19.3,144.9V155.1H166.7c33.69,0,57,17.43,57,55.15,0,38.5-21.89,55.15-57,55.15H148.84Z" style="fill: #fff"/>
      </g>
      <g style="opacity: 0.550002992153168">
        <rect x="250.76" y="120.5" width="49.24" height="179.5" style="fill: #fff"/>
      </g>
    </g>
  </g>
</svg>
