<svg id="Layer_1" data-name="Layer 1" xmlns="http://www.w3.org/2000/svg" xmlns:xlink="http://www.w3.org/1999/xlink" viewBox="0 0 300 300">
  <defs>
    <clipPath id="clip-path">
      <rect x="-692.22" y="-269.49" width="1280" height="800" style="fill: none"/>
    </clipPath>
  </defs>
  <title>landing</title>
  <g style="clip-path: url(#clip-path)">
    <image width="4912" height="7360" transform="translate(819.45 -471.68) rotate(90) scale(0.21)" xlink:href="\\teamshare.ead.ubc.ca\team\HELP\helpdata\HELP All\Research Units\ECD Mapping Unit\Maps and Data Library\BC\EDI\Wave 6\Provincial Report\PHOTOS\iStock_95589531_huddle-sutro.jpg"/>
  </g>
  <text transform="translate(227.61 151.25)" style="font-size: 300.8166198730469px;fill: #fff;font-family: Whitney"> </text>
  <g>
    <g>
      <path d="M34,300.06L14,271.19H6.15v28.22H0V235.57H15.71c12.05,0,19.73,6.29,19.73,17.4,0,9.9-6.25,15.54-14.73,17.49l19.64,28.22ZM15.44,241.21H6.15v24.52h8.21c9.11,0,14.82-4.26,14.82-12.4C29.19,245.56,24.37,241.21,15.44,241.21Z" style="fill: #fff"/>
      <path d="M50.62,300V235.57H82.76v5.79h-26v22H77.32l0.89,5.79H56.78v25H83.66V300h-33Z" style="fill: #fff"/>
      <path d="M109.46,272.83h-7.68V300H95.62V235.57h15.27c12.41,0,20.18,6.54,20.18,18.12C131.07,266.38,122.05,272.83,109.46,272.83Zm1-31.56h-8.66v25.87h7.95c9.38,0,15.09-4.3,15.09-13.26C124.82,245.56,119.82,241.26,110.44,241.26Z" style="fill: #fff"/>
      <path d="M168.13,300c-16.43,0-27.68-13.14-27.68-32.13s11.43-32.31,27.86-32.31c16.61,0,27.77,13.14,27.77,32.13S184.73,300,168.13,300Zm0.09-58.86c-12.95,0-21.43,10.8-21.43,26.55,0,15.93,8.57,26.73,21.52,26.73s21.43-10.8,21.43-26.55C189.73,251.94,181.16,241.15,168.21,241.15Z" style="fill: #fff"/>
      <path d="M243.75,300.06l-20-28.87H215.9v28.22h-6.16V235.57h15.71c12.05,0,19.73,6.29,19.73,17.4,0,9.9-6.25,15.54-14.73,17.49l19.64,28.22Zm-18.57-58.85H215.9v24.52h8.21c9.11,0,14.82-4.26,14.82-12.4C238.93,245.56,234.11,241.21,225.18,241.21Z" style="fill: #fff"/>
      <path d="M279.74,241.36V300h-6.16V241.36H253.75v-5.79h45.36l0.89,5.79H279.74Z" style="fill: #fff"/>
    </g>
    <g>
      <path d="M66.47,5c21.29,0,37.65,4.57,48.62,13.6,10.52,8.65,15.85,21.22,15.85,37.36,0,23.73-14.76,35.6-27.13,41.38l-4.54,2.12L104,101c11,3.69,19.09,9,24.69,16.12,6.26,8,9.3,18.17,9.3,31.09,0,18.59-6.44,32.92-19.15,42.6-12.44,9.47-30.45,14.27-53.52,14.27H2V5H66.47M43.82,87.53H61.94c18.61,0,29.72-9.71,29.72-26,0-11-5-24.19-28.59-24.19H43.82V87.53m0,85.2H63.64c21.17,0,32.83-10,32.83-28,0-13.06-5.79-28.63-33.4-28.63H43.82v56.66M66.47,3H0V207.12H65.34c46.39,0,74.68-19.53,74.68-58.87,0-27.81-14.14-42-35.36-49.11,15.84-7.4,28.29-21,28.29-43.19,0-33.13-22.06-53-66.48-53h0ZM45.82,85.53V39.38H63.07c18.67,0,26.59,8.58,26.59,22.19,0,14.79-9.62,24-27.72,24H45.82Zm0,85.2V118.07H63.07c20.65,0,31.4,9.17,31.4,26.63s-11.32,26-30.83,26H45.82Z" style="fill: #fff"/>
      <path d="M242.7,1.44c19.87,0,37.31,4.16,51.85,12.37l-6.09,40.85C275.1,44.76,261,39.74,246.37,39.74c-31.24,0-50.65,25-50.65,65.31,0,39.67,20.88,65.31,53.2,65.31,13.73,0,26.68-3.91,42.87-13l5.59,37.17a105.78,105.78,0,0,1-53.26,14.14c-57.22,0-92.76-39.59-92.76-103.32,0-30.52,8.78-56.58,25.38-75.37S216,1.44,242.7,1.44m0-2c-55.44,0-93.35,42.6-93.35,105.91,0,63.9,35.64,105.32,94.76,105.32a108.26,108.26,0,0,0,55.44-15.09l-6.22-41.42c-14.71,8.58-28.57,14.2-44.41,14.2-29.42,0-51.2-22.48-51.2-63.31,0-39.94,19.24-63.31,48.65-63.31,17,0,31.68,7.1,43.56,16.57l6.79-45.56c-14.14-8.28-32-13.31-54-13.31h0Z" style="fill: #fff"/>
    </g>
  </g>
</svg>
