<?xml version="1.0" encoding="utf-8"?>
<!-- Generator: Adobe Illustrator 19.2.1, SVG Export Plug-In . SVG Version: 6.00 Build 0)  -->
<svg version="1.1" xmlns="http://www.w3.org/2000/svg" xmlns:xlink="http://www.w3.org/1999/xlink" x="0px" y="0px"
	 viewBox="0 0 643.5 648" style="enable-background:new 0 0 643.5 648;" xml:space="preserve">
<style type="text/css">
	.st0{fill:none;stroke:#7B6E66;stroke-miterlimit:10;}
	.st1{fill:none;}
	.st2{fill:#7B6E66;stroke:#FFFFFF;stroke-width:3;stroke-miterlimit:10;}
	.st3{opacity:0.25;fill:#FFFFFF;stroke:#FFFFFF;stroke-width:2;}
	.st4{fill:#FFFFFF;}
	.st5{font-family:'Whitney-Light';}
	.st6{font-size:21px;}
	.st7{fill-rule:evenodd;clip-rule:evenodd;fill:#FFFFFF;stroke:#7B6E66;stroke-width:0.75;stroke-miterlimit:10;}
	.st8{fill-rule:evenodd;clip-rule:evenodd;fill:#FFFFFF;stroke:#F79521;stroke-width:0.75;}
	.st9{display:none;fill-rule:evenodd;clip-rule:evenodd;fill:#010101;}
	.st10{fill-rule:evenodd;clip-rule:evenodd;fill:#FFFFFF;stroke:#EB2127;stroke-width:0.75;}
	.st11{fill-rule:evenodd;clip-rule:evenodd;fill:#FFFFFF;stroke:#8CC541;stroke-width:0.75;stroke-miterlimit:10;}
</style>
<g id="Layer_2">
</g>
<g id="Nation_x2F_Global">
	<circle class="st0" cx="321.6" cy="325.3" r="316"/>
	<path id="SVGID_x5F_1_x5F_" class="st1" d="M601.9,323c0,154.8-125.5,280.4-280.4,280.4C166.7,603.4,41.2,477.8,41.2,323
		c0-154.8,125.5-280.4,280.4-280.4C476.4,42.6,601.9,168.2,601.9,323z"/>
	<text>	<textPath  xlink:href="#SVGID_x5F_1_x5F_" startOffset="33.5%">
<tspan  class="st5" style="fill:#7B6E66; font-size:24px;">NATION/GLOBAL</tspan>	</textPath>
</text>
	<path id="SVGID_x5F_2_x5F_" class="st1" d="M623.9,324c0-167-135.4-302.4-302.4-302.4S19.2,157,19.2,324s135.4,302.4,302.4,302.4
		S623.9,491,623.9,324z"/>
	<text>	<textPath  xlink:href="#SVGID_x5F_2_x5F_" startOffset="15.3177%">
<tspan  class="st5 st6" style="fill:#7B6E66;">National Customs</tspan>	</textPath>
</text>
	<path id="SVGID_x5F_3_x5F_" class="st1" d="M601.8,324.5c0,154.8-125.5,280.4-280.4,280.4c-154.8,0-280.4-125.5-280.4-280.4
		c0-154.8,125.5-280.4,280.4-280.4C476.3,44.1,601.8,169.6,601.8,324.5z"/>
	<text>	<textPath  xlink:href="#SVGID_x5F_3_x5F_" startOffset="10.4697%">
<tspan  class="st5 st6" style="fill:#7B6E66;">Politics</tspan>	</textPath>
</text>
	<path id="SVGID_x5F_4_x5F_" class="st1" d="M623.8,324.5c0-167-135.4-302.4-302.4-302.4S19.1,157.5,19.1,324.5
		s135.4,302.4,302.4,302.4S623.8,491.5,623.8,324.5z"/>
	<text>	<textPath  xlink:href="#SVGID_x5F_4_x5F_" startOffset="-1015.558%">
<tspan  class="st5 st6" style="fill:#7B6E66;">Social Conditions</tspan>	</textPath>
</text>
	<path id="SVGID_x5F_5_x5F_" class="st1" d="M603.9,325c0,154.8-125.5,280.4-280.4,280.4C168.7,605.4,43.2,479.8,43.2,325
		c0-154.8,125.5-280.4,280.4-280.4C478.4,44.6,603.9,170.2,603.9,325z"/>
	<text>	<textPath  xlink:href="#SVGID_x5F_5_x5F_" startOffset="58.435%">
<tspan  class="st5 st6" style="fill:#7B6E66;">Economy</tspan>	</textPath>
</text>
</g>
<g id="Community">
	<circle class="st0" cx="321.6" cy="325.3" r="269.8"/>
	<path id="SVGID_x5F_6_x5F_" class="st1" d="M566.6,328c0,134.8-109.3,244.1-244.1,244.1C187.7,572.1,78.4,462.8,78.4,328
		c0-134.8,109.3-244.1,244.1-244.1C457.3,83.9,566.6,193.2,566.6,328z"/>
	<text>	<textPath  xlink:href="#SVGID_x5F_6_x5F_" startOffset="33.494%">
<tspan  class="st5" style="fill:#7B6E66; font-size:24px;">COMMUNITY</tspan>	</textPath>
</text>
	<path id="SVGID_x5F_7_x5F_" class="st1" d="M591.6,318c0-146.4-118.7-265.1-265.1-265.1S61.4,171.6,61.4,318
		c0,146.4,118.7,265.1,265.1,265.1S591.6,464.4,591.6,318z"/>
	<text>	<textPath  xlink:href="#SVGID_x5F_7_x5F_" startOffset="15.155%">
<tspan  class="st5 st6" style="fill:#7B6E66;">Medical Institutions</tspan>	</textPath>
</text>
	<path id="SVGID_x5F_8_x5F_" class="st1" d="M582.6,319.3c0-146.4-118.7-265.1-265.1-265.1S52.4,172.9,52.4,319.3
		c0,146.4,118.7,265.1,265.1,265.1S582.6,465.7,582.6,319.3z"/>
	<text>	<textPath  xlink:href="#SVGID_x5F_8_x5F_" startOffset="51.009%">
<tspan  class="st5 st6" style="fill:#7B6E66;">School System</tspan>	</textPath>
</text>
	<path id="SVGID_x5F_9_x5F_" class="st1" d="M572.5,326.3c0,136.4-110.6,247.1-247.1,247.1c-136.4,0-247.1-110.6-247.1-247.1
		c0-136.4,110.6-247.1,247.1-247.1C461.9,79.3,572.5,189.9,572.5,326.3z"/>
	<text>	<textPath  xlink:href="#SVGID_x5F_9_x5F_" startOffset="10.3497%">
<tspan  class="st5 st6" style="fill:#7B6E66;">Mass Media</tspan>	</textPath>
</text>
	<path id="SVGID_x5F_10_x5F_" class="st1" d="M563.6,323.3c0,134.8-109.3,244.1-244.1,244.1c-134.8,0-244.1-109.3-244.1-244.1
		c0-134.8,109.3-244.1,244.1-244.1C454.3,79.3,563.6,188.5,563.6,323.3z"/>
	<text>	<textPath  xlink:href="#SVGID_x5F_10_x5F_" startOffset="58.1747%">
<tspan  class="st5 st6" style="fill:#7B6E66;">Community Centres</tspan>	</textPath>
</text>
</g>
<g id="Imm._Network">
	<circle class="st2" cx="321.6" cy="325.3" r="230"/>
	<path id="SVGID_x5F_11_x5F_" class="st1" d="M525.5,324c0,112.7-91.3,204-204,204c-112.7,0-204-91.3-204-204
		c0-112.7,91.3-204,204-204C434.2,120,525.5,211.3,525.5,324z"/>
	<text>	<textPath  xlink:href="#SVGID_x5F_11_x5F_" startOffset="33.496%">
<tspan  class="st4 st5" style="font-size:24px;">CLOSE INFLUENCES</tspan>	</textPath>
</text>
</g>
<g id="Family">
	<circle class="st3" cx="247.6" cy="244.5" r="99.7"/>
	<rect x="188.8" y="237.7" class="st1" width="74.5" height="31"/>
	<text transform="matrix(1 0 0 1 189.9559 252.7021)" class="st4 st5 st6">FAMILY</text>
</g>
<g id="Peers">
	<circle class="st3" cx="395.5" cy="403.5" r="99.7"/>
</g>
<g id="Classroom">
	<circle class="st3" cx="395.5" cy="244.5" r="99.7"/>
	<rect x="370.9" y="237.7" class="st1" width="86" height="31"/>
	<text transform="matrix(1 0 0 1 373.7119 252.7021)" class="st4 st5 st6">SCHOOL</text>
</g>
<g id="Culture">
	<circle class="st3" cx="247.6" cy="403.5" r="99.7"/>
	<rect x="181.2" y="401.6" class="st1" width="89.5" height="30"/>
	<text transform="matrix(1 0 0 1 182.9836 416.6123)" class="st4 st5 st6">CULTURE</text>
	<rect x="376.6" y="401.6" class="st1" width="74.5" height="31"/>
	<text transform="matrix(1 0 0 1 386.3746 416.6133)" class="st4 st5 st6">PEERS</text>
</g>
<g id="Layer_10">
</g>
<g id="Layer_9">
	<g>
		<path class="st4" d="M429.1,468.2l-45,5.3l4.9,7.7c-57.9,33.8-114.6,10.6-134.8-0.4l4.6-7.3l-45-5.3l25.3,36.1l3.8-5.9
			c11.8,7.4,84.4,44.8,157,0.5l-0.2-0.8l3.9,6.2L429.1,468.2z"/>
		<path class="st4" d="M429.1,179.8l-45-5.3l4.9-7.7c-57.9-33.8-114.6-10.6-134.8,0.4l4.6,7.3l-45,5.3l25.3-36.1l3.8,5.9
			c11.8-7.4,84.4-44.8,157-0.5l-0.2,0.8l3.9-6.2L429.1,179.8z"/>
		<path class="st4" d="M465.7,216.4l5.3,45l7.7-4.9c33.8,57.9,10.6,114.6-0.4,134.8l-7.3-4.6l-5.3,45l36.1-25.3l-5.9-3.8
			c7.4-11.8,44.8-84.4,0.5-157l-0.8,0.2l6.2-3.9L465.7,216.4z"/>
		<path class="st4" d="M177.4,216.4l-5.3,45l-7.7-4.9c-33.8,57.9-10.6,114.6,0.4,134.8l7.3-4.6l5.3,45l-36.1-25.3l5.9-3.8
			c-7.4-11.8-44.8-84.4-0.5-157l0.8,0.2l-6.2-3.9L177.4,216.4z"/>
	</g>
</g>
<g id="Silhouettes">
	<path class="st7" d="M349,260.8c-0.2-2.7-2.8-13.2-3-14.5c-0.2-1.2-2.3-11.2-3.2-11.8c-1.4-0.9-2.8-2.8-3.6-3.2
		c-0.3-0.1-2.6-1.7-4.2-1.6c-2-1.3-4.7-2.3-6.5-4.3c-0.9-1-1.5-2.5-2.6-3.1c-0.4-0.2-0.9-0.1-1.2-0.4c-1.7-1.4-0.1-4,0.3-6.1
		c5.7-2.7,10.8-13.5,10.9-13.9c0.1-0.4-0.2-0.5-0.2-0.8c1.2-1.8,2.1-4,3.5-5.5c0.8-2,0.5-6.4,0.5-6.4s-1.8-5.1-3.4-7.2
		c-0.8-1.1-5.6-4.6-6.6-5.1c-3.3-1.7-11.8,1.7-12.3,1.5c-3.8,3.4-4.9,7.5-6.9,11.6c-4.9,0.4-3,8.8-0.7,10.7c-1,7-3.4,12.6-9.3,14.7
		c-0.4,0-0.5-0.4-0.8-0.1c-4.1,1.5-12.8,5.1-13.2,5.1c-5.3,1-9.3,4.9-9.7,11.2c-0.4,5.1,0.6,24.7,1.2,28.2
		c0.9,5.4,1.6,11.7,4.2,15.1c0.1,0.7,0.3,1.3,0.4,1.8c-0.8,4.6-2.2,10.7-2.4,15.8c-0.2,2.9-1.4,20.3-1.4,20.3
		c-0.3,0.1-3.4,14.4-3.4,14.4s3.1,2,3.4,2.4c-0.4,3.6-0.3,7-0.5,10.5c-0.3,4.4-3,7.8-2.4,12.3c0.1,1,0.3,4.1,0.3,4.6
		c-0.2,1.9,0.5,3.8,0.5,5.8c0,3.6-1.3,7.5-0.9,11.6c-0.2,0.5-0.8,0.6-1.1,1.1c0.5,1.7,0.9,3.4,1.6,4.9c-1.1,1.3-1.3,4.6-0.4,6.3
		c0,1.4-1,2.5-1.2,3.8c-0.1,0.6,0.1,1.2,0,1.8c-0.3,2-2.1,3.8-0.9,6.1c-0.7,1.1-1,1.9-1.1,3.5c-0.3,4.4,0.3,10.6,1.6,14.1
		c0.2,0.6,0.8,1.1,0.8,1.8c0,0.7-0.5,2.1-0.8,3.5c-0.3,1.3-0.4,2.8-0.5,3.8c-0.3,1.5-2,3.2-0.4,5.1c-0.8,0.5-1.2,0.5-2.3,0.3
		c-1.4,0.4-1.7,2.8-0.9,4.2c-1.3,2.9,1.5,4.6,1.9,7.1c-0.3,1-0.9,2.3-1.6,3.5c-1.7,2-4.7,6.5-4.7,6.5c-0.9,1-0.3,4.7-0.3,4.7
		c0,0.3,8.5,2.6,11.7,1.8c0.9-0.2,2.9-0.9,3.5-1.3c0.8-0.6,1.5-1.4,1.7-2.4c0.3-1.6,4.8-8.2,4.8-8.2c0.1-0.7,0.4-1.9,0-2.4
		c1.7-0.4,1.9-2.3,2.8-3.8c0.7-1.2,1.8-1.9,2.3-3.1c0.6-1.3,1.1-3.1,1.1-4.5c0-2.7-3.6-1.9-5.5-2.8c1-1.8,3-2,4.2-3.5
		c1.5-1.9,2.2-4.9,2.8-7.7c0.7-3,1.3-6.2,1.5-9.2c0.2-3.8,0.9-7.2,1.4-10.1c0.1-0.9,0-1.7,0.1-2.4c0.3-1,1-2.3,1.5-3.4
		c1.5-3.5,2.5-7.5,3.6-11.4c1.5-4.8,5.5-15.9,6.8-20.8c0.5,3.8,2.8,18.4,2.9,20c0.1,1.4-0.8,2.9-0.9,4.6c-0.1,1.3,0.3,2.7,0.3,3.9
		c0,0.5-0.3,1.1-0.4,1.8c-0.3,2.9,0,6.5,0.1,9.9c0.2,4.5,1,9.1-0.4,12.2c-0.6,1.4-2.2,1.6-3,2.7c-0.6,0.8-1.8,5.1-1.6,6.2
		c0.3,2.3,2.8,3.5,4.6,4.1c-2,0.7-4.9,1.3-5.3,2.8c-0.4,1.5,0.4,3.2,1.2,4.6c0.8,1.3,2.7,2,3.1,3.1c0.2,0.6-0.2,1.1-0.1,1.5
		c0.1,0.6,1,6.5,2.6,7.2c2.1,0.8,6.7,3.3,6.7,3.3s0.9,1.3,1.2,1.5c1,0.8,2.8,1.9,4,2.1c0.3,0,0.9,0.1,1.7,0.1c3.3,0.7,7,0.6,9.7-0.7
		c0.5-0.1,0.9-1.3,0.9-1.7c0.1-1.3,0-3.3-1.1-5.2c0,0-2.6-2.9-4.2-4.1c-1.8-1.7-4.2-3.3-4.9-5.1c-0.3-0.9-0.6-1.1-0.8-1.8
		c1.2-0.6,2.6-0.5,3.2-1.5c1-1.5,0.4-4.7-1.5-5.4c-0.7-0.3-1.3,0.2-2-0.3c2.6-1.3,7.4-2.3,6.1-6.1c0.8-3.4,0-12.9,0.1-14.5
		c0.4-4.6,0.4-9.2,1.5-13.4c0.5-1.9,1.7-4.6,1.4-7.2c-0.1-1.3,0-1.7,0.1-3c0.1-0.8-0.1-1.6,0-2.2c0.2-1,0.8-2,1.1-3.1
		c1-3.5,1.7-7.1,2-10.9c0.2-1.7,0.1-3.5,0.4-5.1c1-4.8,2.6-9.6,2.8-14.6c0.3-6.3,0.9-12.5,0.4-19.5c3.1-1.8-0.5-18.7-0.7-20.5
		c-0.4-5.8-1.1-11.4-2.4-16.5c-1-3.9-2.4-7.3-3.5-10.4c3.7-0.2,7.5,1.1,10.3-0.3c1.3-0.6,1.8-2.6,2.4-4.5
		C349.1,271.4,349.4,266.2,349,260.8z"/>
	<path class="st8" d="M327.1,265.1c0,0,2.1,0.6,2.4-1.1c0.3-1.7,1.4-3.7,1.9-5.1c0.5-1.4-0.9-2.5-0.9-2.5s-0.4-9.7-1.6-12.5
		c-1.2-2.8-5.4-5.8-8.8-5.9c-3.4-0.1-5.4,0.1-5.4,0.1s-5.7-0.5-8.7,4.1c-3,4.6-1.9,12.4-1.9,12.4c-2.4,2.8-0.6,3.3-0.6,6.5
		c0,1.8,1.1,2.7,2,2.8c0.9,0.1,0.9-0.1,0.9-0.1s3.6,5.5,3.9,6.2c0.3,0.7,0.1,4.7-0.7,6c-0.8,1.3-5.3,3.1-5.3,3.1s-7,5.1-9,6.4
		c-2,1.3-4.7,3.9-4.7,3.9s-2.5,10.3-4.1,13.2c-1.6,2.9-4.1,8.3-4.1,8.3s4.2,2.7,5.1,3c1,0.4,2,0.9,2,0.9s-0.3,7.7-1.3,9.5
		c-1.1,1.8-1,10.1-0.2,17.5c0.8,7.5,1.2,17.1,0.9,19.9c-0.3,2.8-0.5,7-0.5,8.6c0,1.6,3.7,4.8,3.7,4.8s3.2,0.7,4.1,0.6
		c0.8-0.1,0.9-0.1,0.9-0.1s-1.5,39.8-1.4,45.6c0.1,5.8,1.6,7.9,0.3,9.2c-1.3,1.3,1.6,1.8,1.6,4.4c0,2.5-2.5,6.8-2.5,9.4
		c0,2.7,2.4,4.5,2.4,4.5l3.1-0.8c0.9-0.2,3.4,10.8,11,11.1c1.1,0.1,3.5,0,4.7-0.4c2.7-1,3-3,1.6-7.2c-1.4-4.2-1.8-8.6-1.8-8.6
		s4.7-8.3,4.7-11.7c0-3.4-1.1-7.9-1.6-10.4c-0.4-2.5-1-16.5-1-22.3c0-5.8-0.4-16.2,0.7-19c1.1-2.8,1.6-5.4,1.6-5.4s2.1,4.5,2.1,10.2
		c0,5.6,1,5.4,2,14.5c1,9.2-0.4,18.1-0.8,22.7c-0.4,4.7-3.5,5.4-1,10.3c2.5,4.9,6.2,3,5.9,9.3c-0.2,4.7,4.6,5.4,7.8,8.6
		c1.7,1.7,3.7,5.1,8.9,5.8c5.2,0.7,7.6-1.7,7.8-4.5c0.1-2.8-6.3-9.6-6.3-9.6s5.6-4.5,3.8-7.8c-1.8-3.2-6.1-6.9-6.1-6.9
		s0.6-45.3,0.6-48.9c0-3.7,0-5.8,0-5.8s3.7,0.3,5-0.7c1.3-1,2-4.6,2.4-6.1c0.4-1.4-1.3-7.8-1.3-9.2c0-1.4-1.1-30.8-2.3-33.6
		c-1.3-2.8-2.3-4.5-2.4-6.5c-0.1-2-0.6-3.9-0.6-3.9l7.9-3.7c0,0-8-13-9.7-17.3c-1.7-4.4-2.7-6.9-2.7-6.9s-12.8-6.3-14.5-7.3
		c-1.7-1-2.3-1.8-2.4-3.5c-0.1-1.7-0.1-2.7-0.1-2.7L327.1,265.1L327.1,265.1z M342.8,340.5c0,0,1.8,8,2.7,11.3
		c0.9,3.3,0.1,3.6-0.2,5.3c-0.4,1.8-0.3,8.2-0.3,8.2h-2.1l0.1-1.4l1-0.8L342.8,340.5L342.8,340.5z M299.8,313.9c0,0,1.7,2.8,1.7,7.8
		s-1.4,10.2-2,13.8c-0.6,3.7-2.1,11.7-2.3,14.2c-0.1,2.5-0.1,14.2-0.1,14.2l1.5,0.3l-0.6,5.3c0,0-2.6-0.3-2.6-3.7
		c0-3.4-0.3-7-0.6-8.2c-0.4-1.3,1.5-23.6,1.5-26.9c0-3.4,1-13.5,1-13.5l1.7-0.1L299.8,313.9L299.8,313.9z"/>
	<path class="st9" d="M-180.6-226.5c0,0-0.1,0-0.1,0c-0.1-0.5-0.9-1-1.3-1.3c0,0,0,0-0.1,0c0,0,0,0,0,0.1c0.3,0.9,0.3,1.8,0.5,2.8
		c0,0.9,0,1.7,0,2.6c0,0.7,0,1.4,0,2.1c0.1,0.5,0.1,1.2,0.3,1.7c0.1,0.3,0.4,0.6,0.5,1c0,0.6,0.1,1.3,0.1,1.9
		c0.3,1.7,0.1,4.2-0.4,5.5c0.3,0,0.5,0,0.7,0c0.4,0.5,0.6,1.1-0.3,1.4c-0.2,0-0.4,0-0.6,0.1c-0.1,0.1-0.1,0.2-0.2,0.3
		c-0.5,0.2-1.2,0.3-1.7,0.4c-0.1-0.5-0.1-1.1-0.3-1.5c-0.2-0.3-0.4-0.3-0.5-0.8c-0.1-0.7,0.2-1.4,0.1-2c-0.1-0.5-0.2-1.1-0.4-1.6
		c-0.1-1.1-0.2-2.1-0.3-3.2c-0.1-0.8-0.3-1.5-0.4-2.2c-0.2-1-0.1-2.1-0.4-3c-0.1-0.2,0-0.7-0.2-0.8c-0.3,1.3-0.1,2.8-0.3,4.1
		c-0.3,1.7-0.3,4.2,0.1,5.9c0.1,0.7,0.5,1.2,0.8,1.9c-0.3,0.3-0.6,0.6-0.9,0.9c0.1,0.3,0.2,0.6,0.2,1c-0.4,0.4-1.5,0.4-2.1,0.2
		c-0.1-0.4,0-0.7,0-1.1c-0.1,0-0.3,0-0.4,0c-0.4-0.7-0.9-1.6-1.1-2.5c0-0.5,0-0.9-0.1-1.4c-0.4-2.5,0.1-5-0.3-7.7c0-0.7,0-1.4,0.1-2
		c-0.1-0.4-0.3-0.7-0.4-1.1c-0.2-0.9,0.3-1.5,0.3-2.3c-0.8,0-1.6-0.7-1.7-1.4c-0.1-0.4,0.3-0.7,0.1-1c-0.3-0.4-0.5-0.9-0.8-1.3
		c0-0.3,0-0.5,0-0.8c-0.1-0.3-0.2-0.6-0.2-0.9c0-0.5,0.1-1,0.1-1.6c0.2-1,0.2-2.1,0.4-3.1c0.2-0.7,0.2-1.5,0.5-2
		c0.3-0.6,1.7-1,2.4-1.4c0.5-0.2,0.9-0.8,1.3-1.2c0-0.6-0.4-1-0.5-1.5c-0.1-0.3,0.2-0.5,0.2-0.7c0.1-0.3-0.2-0.4-0.1-0.7
		c0.1-1.5,1.2-2.7,3-2.3c0.3,0.1,0.6,0.2,0.9,0.3c1.1,0.5,0.5,2.8,0.2,3.6c-0.1,0.3-0.5,0.5-0.3,1c0.5,0.2,0.7,0.8,1.1,1.1
		c0.2,0,0.3,0.1,0.5,0.1c0.4,0.2,0.8,0.3,1.2,0.5c0.9,0.6,1.4,1.8,1.7,3c0,0.3,0,0.5,0,0.8c0.2,0.8,0.9,2.2,0.7,3.3
		c-0.2,1.1-0.5,2.2-0.7,3.2c0,0.5-0.1,0.9-0.1,1.4c-0.1,0.2-0.2,0.5-0.3,0.7C-180.5-227.4-180.5-227-180.6-226.5z M-184.5-246.6
		C-184.4-246.6-184.4-246.6-184.5-246.6C-184.4-246.6-184.4-246.6-184.5-246.6z"/>
	<path class="st9" d="M-205.2-154.3c0,0.4-0.2,0.8-0.2,1.3c0.3,0.2,0.6,0.6,0.9,0.8c0.2,0.2,1,0.4,1.3,0.5c0.4,0.1,1.1,0.2,1.3,0.5
		c0.1,0.1,0,0.2,0.1,0.3c0.3,0.6,0.4,1.4,0.6,2.1c0,0.3,0,0.5,0.1,0.8c0.3,1,0.3,2.3,0.6,3.4c0.1,0.5,0,1.1,0.1,1.6
		c0.1,0.4,0,0.9,0,1.3c0,1.1,0,2.1,0,3.2c-0.1,0.1-0.2,0-0.2,0.2c0.1,0.1,0.3,1.1,0.2,1.4c0,0.1-0.2,0.1-0.2,0.2
		c-0.3,0.4-0.6,1.1-1.3,1.1c0-0.2,0.1-0.3,0.2-0.5c0.1-0.3,0-0.8-0.1-1c0,0-0.1,0-0.1,0c0,0,0,0,0,0c-0.2,0.4,0,0.9-0.5,0.9
		c0-0.5,0-1.4,0.1-1.8c0-0.2,0.1-0.3,0.2-0.5c0,0,0,0-0.1,0c-0.1,0-0.2,0-0.3,0c-0.1,0.1-0.1,0.2-0.1,0.5c-0.4,0.5-0.3,1.9-0.3,2.8
		c0,0.2,0.1,0.4,0.1,0.6c0,0.1-0.2,0.2-0.2,0.3c0,0.4,0,0.8,0,1.2c0,0.2,0.2,0.5,0.1,0.7c0,0.1-0.1,0.1-0.1,0.1
		c-0.1,0.1,0,0.3,0,0.4c-0.1,0.4,0.2,0.6,0,1c-0.2,0.8-0.4,1.6-0.7,2.4c-0.1,0.2-0.2,0.4-0.3,0.5c-0.2,0.5,0.1,1.1,0,1.6
		c-0.1,0.3-0.4,0.3-0.4,0.8c0.5,0.6-0.1,1.9-0.4,2.4c-0.1,0.3-0.1,0.5-0.5,0.5c-0.1-0.1-0.3-0.1-0.4-0.1c-0.1,0.1-0.1,0.4-0.2,0.5
		c0,0-0.1,0-0.1,0.1c-0.1,0.1,0.1,0.5,0,0.7c0,0-0.1,0.1-0.1,0.2c0,0.1,0,0.1,0,0.2c0,0-0.1,0.2-0.1,0.2c-0.5,0.3-2.1,0.6-2.2-0.3
		c0.1-0.1,0.1-0.3,0.2-0.4c0.2-0.4,0.4-0.4,0.3-1c0-0.2,0-0.4,0-0.6c-0.1-0.2-0.3-0.3-0.3-0.6c0.1,0,0,0,0.1-0.1
		c-0.4-0.3-0.2-0.8-0.4-1.3c-0.1-0.5-0.2-1.1-0.3-1.7c0-0.3,0-0.6,0-0.9c-0.1-0.5-0.1-1.1-0.2-1.5c0-0.3,0-0.5,0-0.8
		c-0.1-0.5-0.3-0.9-0.5-1.4c0-0.5,0-1.1,0-1.6c0-0.1,0.1-0.2,0-0.4c-0.2-0.7-0.3-1.6-0.5-2.3c-0.1-0.4,0-1-0.1-1.4
		c-0.1-0.4-0.3-0.7-0.4-1c-0.1-0.2-0.1-0.6-0.4-0.6c-0.1,0.1-0.4,0-0.6,0c0-1.4-0.5-2.3-0.7-3.5c0-0.5,0-1-0.1-1.4
		c-0.2-0.7,0-1.4,0.1-2c0.2-0.8,0.2-1.7,0.4-2.4c0-0.2,0-0.4,0.1-0.6c0.2-0.6,0.4-1.6,0.7-2.1c0.3-0.4,1-0.4,1.5-0.6
		c0.3-0.1,0.7-0.3,1-0.4c0.3-0.2,0.6-0.6,0.8-0.8c0-0.7-0.1-1.1-0.2-1.6c-0.1,0-0.2,0-0.3,0c0-0.1,0-0.1-0.1-0.1
		c-0.2-0.2-0.1-0.7,0-1c0.2,0,0.2,0,0.3-0.2c-0.1-0.2,0-0.7,0-0.9c0.2-0.6,0.8-1.1,1.5-1.1c0.9-0.1,1.6,0.6,1.8,1.4
		c0,0.3-0.1,0.6-0.1,0.9c0.2,0.1,0.3,0.1,0.4,0.4C-204.8-154.8-204.6-154.3-205.2-154.3z M-203.2-146.3c-0.5,1.1-0.1,3.3,0.1,4.3
		c0,0.2,0,0.3,0,0.5c0.1,0.5,0.1,0.9,0.3,1.3c0,0,0.1,0,0.1,0c0,0,0,0,0,0c0,0,0-0.1,0-0.1c-0.2-0.3,0-0.8,0-1.1
		c0-0.1-0.1-0.4-0.1-0.6c0-0.3,0-0.7,0-1c-0.1-0.6-0.1-1.3-0.3-1.9C-203.1-145.4-202.9-146-203.2-146.3
		C-203.1-146.3-203.1-146.3-203.2-146.3z M-209.9-145.9c-0.1,0.2,0,0.5-0.1,0.8c0,0.1-0.2,0.3-0.2,0.4c-0.1,0.2,0.1,0.5,0.1,0.8
		c-0.1,0.4-0.2,1.3-0.1,1.7c0,0,0,0,0.1,0c0,0,0,0,0-0.1c0.2-0.3,0.2-0.8,0.3-1.2c0.2-0.8,0.4-1.1,0.1-2
		C-209.8-145.6-209.7-145.7-209.9-145.9C-209.8-145.9-209.8-145.9-209.9-145.9z M-206.6-134.9c0,0.1,0,0-0.1,0.1
		c-0.3,0.5,0.1,1.2,0,1.7c-0.2,0.7,0,1.4,0.2,2c0,0.3,0,0.6,0,0.9c0.1,0.7,0,1.6,0.2,2.4c0,0,0.1,0,0.1,0c0.3-0.6,0.2-1.9,0.4-2.7
		c0-0.1,0.1-0.9,0.1-0.9c0,0-0.1,0-0.1-0.1c-0.1-0.1,0-0.2,0-0.3c-0.1-0.1-0.2-0.1-0.3-0.1c-0.1-0.1-0.2-0.5-0.3-0.6
		c-0.1-0.4,0.3-0.7,0.3-0.9c0-0.2-0.3-1.2-0.4-1.4C-206.5-134.9-206.5-134.9-206.6-134.9z"/>
	<path class="st9" d="M-70.2-153c0,0,0,0.1,0.1,0.3c0.1,0.1,0.1,0.2,0.1,0.3c0,0.1,0,0.2-0.1,0.3c-0.1,0.1-0.2,0.2-0.2,0.2
		s0.1,0.3,0.1,0.4c0,0.1,0.1,0.2,0,0.3c-0.1,0.1-0.2,0.1-0.2,0.1c0,0,0,0.1,0,0.2c0,0.1,0,0.1,0,0.2c0,0,0,0.1,0,0.1
		c0,0.1,0,0.1,0,0.1c0,0-0.1,0.1-0.1,0.2c0,0.1,0,0.1,0,0.2c0,0.1,0,0.2,0,0.2c0,0,0.2,0,0.4,0.1c0.2,0.1,0.5,0.3,0.5,0.3
		s0.2-0.1,0.5,0c0.3,0.2,0.4,0.1,0.5,0.3c0.1,0.2,0.2,0.2,0.4,0.6c0.2,0.4,0.3,0.5,0.4,0.9c0.1,0.3,0.1,0.5,0.1,0.6
		c0,0.1,0.1,0.2,0.1,0.3c0,0.1,0.1,0.3,0.2,0.5c0.1,0.2,0.2,0.6,0.2,0.6s0.1,0.1,0.2,0.2c0.1,0.1,0.1,0.4,0.2,0.6
		c0,0.2,0.2,0.4,0.2,0.7c0.1,0.2,0.1,0.3,0.1,0.5c0,0.2,0,0.4,0,0.5c0,0.1,0.1,0.7,0.1,1c0,0.3,0,0.7,0,1c0,0.3-0.2,0.8-0.2,1
		c0,0.2,0,0.5,0,0.7c0,0.2-0.1,0.4-0.1,0.4s-0.1,0.1-0.1,0.3c-0.1,0.2-0.1,0.3-0.2,0.5c-0.1,0.2-0.2,0.2-0.2,0.3
		c0,0.1-0.3,0.5-0.3,0.6c-0.1,0.1-0.2,0.4-0.4,0.6c-0.2,0.1-0.2,0.2-0.4,0.3c-0.2,0.1-0.3,0.3-0.5,0.3c-0.2,0-0.2,0.1-0.2,0.1
		s0,0.8,0,1.1c0,0.3,0,1.5,0,2c0,0.6,0,1.6,0,1.9c0,0.2,0,0.9,0,1.2c0,0.2,0.1,0.3-0.1,0.6c-0.2,0.2-0.2,0.2-0.3,0.5
		c0,0.3,0,0.6,0,0.9c0,0.3-0.4,1.7-0.4,2c-0.1,0.3-0.1,0.7-0.2,1.1c-0.1,0.4-0.1,0.5-0.1,0.5s0.3,0.2,0.3,0.2c0,0.1,0.1,0.1,0,0.2
		c-0.1,0.1-0.2,0.1-0.2,0.2c0,0.1,0,0.3-0.2,0.4c-0.1,0.1-0.2,0.1-0.3,0.3c-0.1,0.1-0.1,0.1-0.3,0.3c-0.1,0.1-0.1,0-0.2,0.2
		c0,0.2,0,0.4,0,0.5c0,0.1-0.1,0.7,0,0.8c0,0.1,0.2,0.3,0.2,0.3c0.1,0.1,0.1,0.3,0.1,0.4c0,0.1,0,0.4-0.1,0.5c0,0.1-0.3,0.4-0.4,0.5
		c-0.1,0.1-0.2,0.1-0.5,0.1c-0.3,0-0.6,0-0.8-0.2c-0.2-0.1-0.4-0.6-0.4-0.8c0-0.2,0.1-0.6,0.1-0.8c0-0.1,0.1-0.5,0-0.6
		c0-0.1-0.1-0.4-0.1-0.4s0,0.1-0.1,0c-0.1,0-0.2-0.1-0.2-0.2c0-0.1-0.1-0.3-0.1-0.3c0-0.1-0.1-0.4-0.1-0.4l-0.2,0.2l-0.2,0
		c0,0-0.1,0.1-0.2,0.2c0,0.1-0.2,0.4-0.3,0.5c-0.1,0.1-0.2,0.1-0.3,0.2c-0.1,0.1-0.1,0.3-0.2,0.5c0,0.1-0.2,0.4-0.2,0.4
		c-0.1,0-0.2,0.2-0.3,0.3c-0.1,0.1-0.3,0.2-0.4,0.2c-0.1,0-0.4,0-0.6-0.2c-0.2-0.1-0.2-0.2-0.3-0.4c-0.1-0.2-0.2-0.3-0.2-0.5
		c0-0.2-0.1-0.3,0-0.4c0.1-0.1,0.1-0.2,0.3-0.3c0.1-0.1,0.3-0.2,0.4-0.2c0.1,0,0.2-0.1,0.2-0.2c0-0.1-0.1-0.2-0.1-0.4
		c0-0.1-0.1-0.4-0.2-0.5c-0.1-0.1-0.3-0.4-0.3-0.5c0-0.1-0.1-0.3-0.1-0.4c0-0.1,0-0.3,0.1-0.3c0.1-0.1,0.2-0.2,0.3-0.2
		c0.1,0,0.2-0.2,0.2-0.2s-0.1-0.9-0.2-1.4c0-0.5-0.3-1.7-0.3-1.8c0-0.1,0.1-0.1,0.1-0.3c0-0.2-0.2-1.3-0.2-1.4
		c0-0.1,0.1-0.4,0.1-0.5c0-0.1-0.2-0.7-0.2-0.9c0-0.2,0-0.6,0-0.8c0-0.2-0.1-0.4-0.1-0.6c0-0.1,0.1-0.2,0.1-0.3
		c0-0.1-0.1-0.7-0.1-0.8c0-0.1,0.1-1.7,0.2-1.9c0-0.2,0.1-1,0.1-1.2c0-0.2,0-0.5,0-0.6c0-0.1,0.2-0.6,0.2-0.7c0-0.1,0-0.4,0.1-0.5
		c0-0.1,0.1-0.3,0.1-0.4c0,0,0-0.3,0-0.3s-0.1,0-0.1-0.1c0-0.1,0-0.3,0.1-0.4c0-0.1,0.1-0.3,0.1-0.4c0-0.1,0.1-0.2,0.1-0.2l0-0.1
		c0,0-0.1,0-0.2-0.1c0-0.1,0.1-0.3,0.1-0.4c0-0.1,0-0.2,0-0.3c0-0.1,0.1-0.2,0.1-0.3c0-0.1,0-0.5,0.1-0.5c0,0,0.2-0.3,0.2-0.4
		c0,0,0.1-0.2,0.1-0.2s-0.1-0.2-0.1-0.3c0-0.1,0.1-0.2,0-0.2c-0.1-0.1-0.1-0.3-0.1-0.4c0-0.1,0-0.2,0-0.3c0,0,0-0.2-0.1-0.3
		c0-0.1-0.1-0.2-0.1-0.2s-0.1,0-0.1,0.1c0,0.1,0,0.3,0,0.3c0,0-0.2,0.1-0.2,0.1s0,0.3-0.1,0.3c0,0.1-0.1,0.3-0.2,0.4
		c-0.1,0.1-0.3,0.1-0.2,0.2c0.1,0.1,0.2,0.3,0.2,0.4c0,0.1,0,0.2,0,0.4c-0.1,0.1-0.2,0.2-0.3,0.2c-0.1,0-0.2-0.1-0.1,0.1
		c0,0.1,0.1,0.3,0.1,0.3l-0.1,0.3c0,0-0.1-0.1-0.1,0c0,0.1-0.1,0.4-0.2,0.6c-0.1,0.1-0.3,0.8-0.6,1.3c-0.3,0.5-0.7,1.1-0.8,1.4
		c-0.1,0.3-0.1,0.7-0.1,0.8c0,0.1,0.2,0.4,0.3,0.6c0,0.2,0,0.3,0,0.5c0,0.2,0,0.3-0.1,0.6c0,0.3,0,0.4,0,0.4s0.1,0.1,0.1,0.1
		c0.1,0,0.2,0,0.2,0.1c0,0,0.1,0.1,0,0.1c-0.1,0-0.2,0.1-0.2,0.1l0,0.2c0,0,0,0.1-0.1,0.1c-0.1,0-0.3,0-0.3,0l-0.1,0.6l0.4,2.5
		c0,0,0,0.3-0.1,0.3c-0.1,0,0.1,0.5,0.1,0.5s0.2,1.3,0.2,1.9c0,0.6,0,1.4-0.1,1.9c-0.1,0.5-0.1,1.9-0.1,2.1c0,0.2-0.1,0.5-0.1,0.5
		l-2.5-0.1l0-0.5l-1.9-0.6l-0.8-3.3l0.6-0.9l0-0.2l2.6-4.8l0.3,0.3l0.1-0.2l0.1,0.1l0.4-0.7l0.1-0.1c0,0,0-0.1,0-0.3
		c0-0.1-0.2-0.3-0.2-0.4c0-0.1,0.1-0.3,0.1-0.5c0-0.1,0-1,0.1-1.1c0-0.2,0-0.4,0.1-0.5c0.1-0.2,0.2-0.8,0.2-1.1
		c0-0.2,0.2-1.5,0.2-1.5s0.4-1.3,0.4-1.4c0-0.1,0-0.2,0-0.2c0.1,0,0.1-0.1,0.1-0.1s0-0.1,0.1-0.3c0-0.2,0.1-0.3,0.1-0.3
		c0,0,0.1-0.2,0.1-0.3c0-0.1,0.1-0.4,0.2-0.7c0.1-0.3,0.1-0.6,0.2-0.7c0-0.1,0.2-0.6,0.2-0.6s0-0.1,0.1-0.2c0.1-0.1,0.1-0.1,0.1-0.3
		c0-0.1-0.1-0.5-0.1-0.6c0-0.1,0-0.3,0.1-0.4c0-0.1,0.2-0.7,0.3-0.8c0.1-0.1,0-0.3,0.1-0.4c0.1-0.1,0.1-0.3,0.2-0.3
		c0.2,0,0.3-0.2,0.4-0.2c0.1,0,0.3,0,0.4-0.2c0.2-0.2,0.3-0.4,0.6-0.5c0.2-0.1,0.5-0.2,0.6-0.2c0.1,0,0.2-0.1,0.3-0.2
		c0.1-0.1,0.3-0.1,0.3-0.1s0.2-0.3,0.2-0.4c0-0.1,0.1-0.4,0-0.5c0-0.1-0.2,0-0.2,0c0,0,0,0.1-0.2,0.1c-0.1,0-0.3-0.1-0.3-0.1
		l-0.1,0.1l-0.1-0.2c0,0,0-0.1-0.1,0c-0.1,0.1-0.3,0.1-0.3,0.1c0,0,0-0.2,0.1-0.3c0.1-0.1,0.2-0.1,0.1-0.2c0,0-0.1,0-0.1,0
		c-0.1,0.1-0.2,0.1-0.2,0.1s-0.2-0.1-0.2-0.2c0-0.1,0-0.2,0-0.3c0.1-0.1,0.1-0.2,0.1-0.3c0-0.1,0.1-0.2,0.1-0.2
		c0-0.1-0.1-0.3-0.1-0.3l-0.3,0c0,0,0-0.1,0-0.1c0.1,0,0.2-0.1,0.1-0.2c-0.1-0.1-0.1-0.1-0.2-0.2c-0.1,0-0.1-0.1-0.1-0.1
		c0-0.1,0-0.2,0.1-0.3c0.1-0.1,0.2-0.3,0.2-0.3s-0.1-0.1,0-0.1c0.1-0.1,0.2-0.1,0.2-0.1c0,0,0-0.1,0-0.3c0.1-0.2,0.2-0.2,0.1-0.2
		c-0.1,0-0.3,0-0.1-0.1c0.1-0.1,0.3-0.1,0.3-0.1s0.2,0,0.2-0.2c0-0.1,0-0.2,0.1-0.2c0.1,0,0.3,0.1,0.2,0c0-0.1-0.2-0.2-0.2-0.3
		c0-0.1,0.3-0.1,0.3-0.1s0.1,0,0.2,0c0.1,0,0.2-0.1,0.3,0c0.1,0,0.1,0.1,0.2,0c0.1,0,0.3-0.1,0.2-0.2c-0.1-0.1-0.3-0.3-0.1-0.3
		c0.1,0,0.2,0,0.3,0.1c0.1,0,0.1,0.1,0.2,0.1c0.1,0,0.2-0.2,0.2-0.2s0-0.1,0.2-0.1c0.2,0,0.4,0.1,0.4,0.1c0.1,0,0.2,0,0.2,0l0.1-0.2
		c0,0,0.3,0.3,0.3,0.4c0.1,0.1-0.1,0.1,0,0.3c0.1,0.1,0.2,0.1,0.3,0.1c0.1,0,0.2-0.1,0.2-0.2c0-0.1,0.1,0.1,0.2,0.1
		c0.1,0,0.3-0.1,0.3-0.1s0.2-0.2,0.1,0c0,0.2,0,0.2,0,0.3c0,0.1,0.4,0.3,0.4,0.3c0.1,0,0-0.1,0.2-0.1c0.1,0,0.3,0,0.3,0.2
		c0,0.1-0.1,0.2-0.1,0.3c0,0.1,0,0.2,0,0.3c0,0.1-0.1,0.2-0.2,0.3c-0.1,0.1-0.3-0.1-0.1,0.1c0.2,0.2,0.4,0.3,0.4,0.3
		s-0.3,0.1-0.3,0.1c0,0,0.1,0.1,0.1,0.2c0,0.1,0.1,0.1-0.1,0.1c-0.2,0-0.4-0.1-0.4-0.1l-0.1,0.1L-70.2-153z M-68.9-145.4
		c0,0-0.1,1.1-0.1,1.5c0,0.4,0,1.3,0,1.5c0,0.2,0,0.4,0,0.6c0,0.2,0.1,0.2,0.1,0.6c0,0.3,0.1,1.1,0.1,1.2c0.1,0.1,0.1,0.8,0.1,0.8
		l0.1,0.2c0,0,0.1-0.1,0.4-0.2c0.3-0.1,0.6-0.3,0.6-0.3l0.1-1c0,0-0.1-0.2,0-0.4c0-0.2-0.1-0.7-0.1-0.7s-0.1-0.3-0.1-0.4
		c0-0.1-0.1-0.2-0.1-0.4c0-0.3-0.1-0.5-0.1-0.5l0.1-0.2l-0.1-0.2c0,0,0-0.3,0-0.3c-0.1-0.1-0.1-0.2-0.2-0.3
		c-0.1-0.1-0.1-0.2-0.1-0.2l0-0.3l-0.1-0.2c0,0-0.2,0.2-0.2,0c0-0.1,0-0.3,0-0.3l-0.1-0.3L-68.9-145.4z M-72.3-135.4
		c0,0,0.2,1.1,0.3,2c0.1,0.9,0.3,2.7,0.3,3.1c0,0.5,0,1.9-0.2,3c-0.2,1-0.3,1.3-0.4,1.5c-0.1,0.2-0.2,0.3-0.3,0.5
		c-0.1,0.3-0.2,0.6-0.2,0.6s-0.4-0.2-0.3-0.3c0-0.1,0,0.1-0.1-0.5c-0.1-0.6-0.1-1.6-0.1-1.7c0-0.1-0.2-0.6-0.2-0.7
		c0-0.1,0-0.4,0-0.5c0-0.1-0.1-0.4-0.1-0.5c0-0.2,0-0.6,0-0.7c0-0.1-0.1-0.4,0-0.6c0.1-0.2,0.3-0.6,0.2-0.7c0-0.1-0.1-0.4-0.1-0.5
		c0-0.2,0.2-0.2,0.2-0.3c0-0.1,0-0.2,0-0.4c0-0.1,0-0.2,0-0.5c0-0.3,0.1-0.8,0.2-1c0.1-0.2,0.2-0.2,0.2-0.4c0-0.2,0.1-0.6,0.1-0.8
		C-72.5-135-72.3-135.4-72.3-135.4z"/>
	<path class="st10" d="M341.1,276.4c0.3-0.3,2.4-0.9,3-1.3c0.3-0.4,3.2,0,3.4,0.3c1.3-0.8,2.8-0.1,3,0c-0.1-0.2,1.1,0.3,1.8,1.2
		c0.9,0,2,0.1,2,0.8c1.1,0.5,2.7,1.6,2.3,2.9c0.9,0.6,2.1,1.9,1.8,4.8c0.1,0.6,0.3,7.3-0.4,9.5c4.2-2,0.7,6.8-1.9,5.9
		c-0.2,0.5-6.4,10,0.1,9.2c1.5-0.2,3,2.7,4.3,3.5c2,1.3,7,2.2,7.9,4.6c0.7,1.8,2.1,3.1,2.8,4.9c1.1,2.9,2.1,5.8,3,8.7
		c0.4,1.3,3.4,11.6,2.9,11.9c-1.9,1.3-1.7,0.7-1.1,3.1c0.7,2.6,1.5,5.1,1.9,7.7c0.8,5.5,1.3,11,1.6,16.5c0.1,2.7,3.2,5,3.5,7.9
		c0,0.5-1.7,3.2-2.1,3.5c-1.1,0.7-2.3,2.9-4.1,2.9c-0.8,0-2-4.6-2-4.5c-0.7,0.7,0.8,2-0.7,2.7c-0.9,0.4-1.6-2.3-1.5-2.9
		c0.5-4,1.2-8.7,0.8-12.7c-0.3-2.6-5.8-21.5-6.6-20.9c-0.9,0.6,0.2,8.6,0.2,9.6c0.1,4.2,0,8.4,0.5,12.6c0.2,2,0.8,3.2-0.9,4.1
		c-0.7,0.3,0.2,6.9,0.2,7.8c0,4.4,0.6,8.6,0.3,13c-0.6,9.6-1.5,19.1-2.4,28.6c-0.4,4.5-0.9,8.9-2.9,13.1c-1,2,2.7,2.4,3.7,4
		c1.1,1.7-0.3,4.9-1,6.5c-1.7,4.3-1.3,4.4,0.1,8.9c1.6,5.1-6.4,3.7-9.4,3.6c-4.7-0.1-4.9-1.5-3-5c1.2-2.3-0.6-3.1-1.9-4.4
		c-2-2.1-1.4-3.7-0.6-6.3c0.6-2.1,2-4.5,2.3-6.5c0.3-2-2.5-4-2.8-6.3c-0.5-3.5,3.1-5.8,1.8-9.1c-1.6-4.4-2-7.3-2-12
		c0-5.3-0.5-10.2-0.9-15.6c0-0.4,0-1.2-0.3-1.4c-1.7,5.5,0,10.1,0.3,15.7c0.1,3-0.4,5-1.5,7.7c-1.1,2.6-0.7,4.7-0.4,7.5
		c0.2,2,0.3,4.1-0.6,6c-1.5,3,2,2.5,1.5,5.3c-1,5.4-1.4,10.9-1.2,16.4c0.2,4.6-6.4,0.8-7.8,4c-0.8,1.7-5.1,3.1-6.8,2.6
		c-1.6-0.5-9.9,0.1-9.5-2.6c0.5-3.5,4.9-5,7.3-6.9c3.1-2.4-0.9-7.1-0.4-10.1c0.7-3.8,7-5.2,5-9.4c-2-4.2-3.7-7.7-4.6-12.4
		c-0.7-3.4-0.2-7.2-0.2-10.6c0-3.5,0.3-7,0-10.5c-0.2-2.1-0.5-4.1-0.7-6.2c-0.1-1.6-4.3-3-4.7-4.9c-0.8-3.2,0-5.5,0.5-8.6
		c0.4-2.3-0.7-5.6-0.8-8c-0.3-5.3-0.6-10.7-0.2-16c0.1-2-1.6-1.3-1.7-2.4c-0.2-2.1,0.6-5.6,1-7.8c1-5.4,1.1-11.5,2.8-16.7
		c1.1-3.2,2.5-6,5.5-7.8c1.8-1.1,4.3-1,4.8-3.4c0.2-1,4.7-0.6,5.3-3.1c0.5-2.2-1.3-7.4-2.6-9c-0.3,0.1-1.4,0.4-1.8,0
		c-0.8-0.8-1.3-1.8-2.1-2.6c-0.7-0.7-1.2-2.4-0.7-3.5c0.7-1.6,1.5-0.2,2.5-0.2c0-0.7-1-2.8-1-3.3c0-0.5,0.7-5.4,0.7-5.5
		c0-0.6-0.9-2.5,0.1-2.1c0.8,0.3,0.3-3.1,0.4-3.2c0.5-1.1,2.5-2.7,2.5-2.7L341.1,276.4z"/>
	<g>
		<path class="st11" d="M364.1,397.7 M360.1,392.4c0.3,0.2,3.3,2.8,3.9,4.9c0.3,1.3,0.6,4.9,0.5,5.4c-0.2,0.9,0,0.6,0.5,1
			c1.3,1-0.9,3.1-0.6,4.6c0.3,1.5-0.3,2.9-1.2,4.1c-0.7,0.9-1.8,1.2-2.5,2c-0.6,0.7-0.6,1.1-1,1.9c-0.5,0.9,2.4,4.1,2.9,5.1
			c0.6,1.2,1.2,2.4,1.5,3.8c0.3,1.4,0.1,2.9,0.3,4.3c0.3,2.3,1.3,4.3,1.4,6.6c0.1,1-0.8,4.3-0.2,4.7c0.3,0.2,0.8,0.6,0.6,1
			c1.4-0.2,2.9,0.3,3.5,0.8c1,0.8,0.9,0.7,2.3,0.8c2.7,0.2,5.2,1.8,6.2,4.3c0.6,1.5,1.3,0.7,2.8,0.9c0.5,0,1.2-0.4,1.7-0.6
			c0.9-0.3,1.8-0.7,2.7-0.7c1.3,0,2.2,2.4,1.8,3.3c-0.2,0.6,0.3,0.4,0,1.4c-0.3,0.8,0,0.7-0.5,1.9c-0.8,1.9-6.7,1.5-7.5,1.4
			c-2,0-3.3,1.5-5.5,1.6c-0.9,0-2,0.1-2.8-0.4c-0.4-0.2-0.5-0.7-0.9-0.4c-0.6,3.1-5.8,2.5-8,2.6c-3.1,0.2-6.3,0.2-9.4,0.2
			c-2.2,0-4.4-0.3-6.6-0.4c-1.4-0.1-3.3,0-4.7-0.5c-2.2-0.8-3.4-0.5-3.4-3.4c0-1.6,0.5-3.3,0.7-4.8c0.1-0.6,0.4-2,0.1-2.6
			c-0.4-0.7-0.8-1.4-1.1-2.2c-0.3-0.9-1.3-1.9-0.9-2.9c0.4-1.2,3.8-3.2,4.3-1.4c1.9-3.5,1.6-7.1,2.1-10.9c0.3-1.9-0.1-3.8,0.3-5.7
			c0.4-1.7,0.9-3.4,1.5-5c0.8-1.8,1.3-3.6,2.2-5.3c0.5-0.8-1.3-2.7-1.4-3.6c-1.9-0.2-6-5-3-5.8c-1.3-1.9,0.3-8.3,0.3-8.1
			c0.4-1.6,2.5-4.6,5.8-6.1c1.9-0.9,5.1-0.6,6.6-0.2c2.8,0.9,4.4,2,4.4,2L360.1,392.4z M355.5,390.1"/>
	</g>
</g>
</svg>
