<?xml version="1.0" encoding="utf-8"?>
<!-- Generator: Adobe Illustrator 16.0.0, SVG Export Plug-In . SVG Version: 6.00 Build 0)  -->
<!DOCTYPE svg PUBLIC "-//W3C//DTD SVG 1.1//EN" "http://www.w3.org/Graphics/SVG/1.1/DTD/svg11.dtd">
<svg version="1.1" id="final" xmlns="http://www.w3.org/2000/svg" xmlns:xlink="http://www.w3.org/1999/xlink" x="0px" y="0px"
	 width="144.91px" height="197.602px" viewBox="0 0 144.91 197.602" enable-background="new 0 0 144.91 197.602"
	 xml:space="preserve">
<path style="fill: #ffffff" d="M0,0v107.165c0,45.038,24.506,77.646,72.455,90.438c47.949-12.791,72.455-45.398,72.455-90.438V0H0z M72.455,191.912
	c-45.33-12.842-66.966-42.769-66.966-85.433V5.489h133.932v100.99C139.421,149.143,117.785,179.07,72.455,191.912z M52.849,73.164
	c-8.108,0.051-9.498-4.048-19.601-4.048s-11.499,4.1-19.606,4.048v-9.409c8.107,0.055,9.503-3.994,19.606-3.994
	s11.493,4.049,19.601,3.994c8.136,0.055,9.502-3.994,19.606-3.994c10.104,0,11.47,4.049,19.605,3.994
	c8.108,0.055,9.498-3.994,19.602-3.994s11.492,4.049,19.605,3.994v9.409c-8.113,0.051-9.502-4.048-19.605-4.048
	s-11.493,4.1-19.602,4.048c-8.136,0.051-9.502-4.048-19.605-4.048C62.352,69.115,60.985,73.215,52.849,73.164z M72.455,75.08
	l4.54,49.136l14.751-39.334l-5.541,44.144l20.052-34.869l-11.995,42.462l25.191-27.378l-15.352,34.157l26.609-19.495
	c-12.1,25.934-20.807,46.717-58.258,58.278c-37.451-11.562-46.165-32.346-58.258-58.278l26.604,19.495L25.455,109.24l25.192,27.378
	L38.652,94.157l20.052,34.869l-5.541-44.144l14.751,39.334L72.455,75.08z M13.643,104.8c8.107,0.052,9.503-3.993,19.606-3.993
	c1.807,0,3.333,0.129,4.671,0.34l-2.733-9.644c-0.601-0.024-1.258-0.054-1.938-0.054c-10.103,0-11.499,4.048-19.606,3.997V104.8
	L13.643,104.8z M46.84,103.931c1.681,0.525,3.516,0.895,6.009,0.868c0.08,0,0.131,0,0.183,0l-1.178-9.383
	c-5.094-0.183-7.427-2.076-11.733-3.179L46.84,103.931L46.84,103.931z M62.22,102.725c1.521-0.578,3.122-1.158,5.192-1.526
	l0.869-9.486c-4.014,0.556-6.353,1.867-9.131,2.763L62.22,102.725L62.22,102.725z M131.268,104.8v-9.354
	c-8.113,0.052-9.502-3.997-19.605-3.997c-0.682,0-1.338,0.029-1.944,0.054l-2.727,9.644c1.338-0.211,2.858-0.34,4.671-0.34
	C121.766,100.806,123.154,104.852,131.268,104.8L131.268,104.8z M98.07,103.931l6.718-11.693c-4.306,1.104-6.644,2.996-11.731,3.179
	l-1.185,9.383c0.058,0,0.108,0,0.188,0C94.555,104.826,96.391,104.457,98.07,103.931L98.07,103.931z M82.689,102.725l3.07-8.25
	c-2.779-0.896-5.117-2.207-9.131-2.763l0.863,9.486C79.568,101.567,81.169,102.147,82.689,102.725L82.689,102.725z M13.643,88.982
	c8.107,0.077,9.503-4.022,19.606-4.022c9.314,0,11.207,3.472,17.793,3.969l-1.184-9.512c-5.666-0.789-7.896-3.811-16.61-3.811
	c-10.103,0-11.499,4.048-19.606,3.996L13.643,88.982L13.643,88.982z M56.943,88.613c4.094-0.84,6.507-2.839,11.938-3.468
	l0.898-9.435c-7.507,0.632-9.452,3.73-16.221,3.891L56.943,88.613L56.943,88.613z M131.268,88.982v-9.38
	c-8.113,0.052-9.502-3.996-19.605-3.996c-8.714,0-10.944,3.021-16.61,3.811l-1.183,9.512c6.586-0.498,8.479-3.969,17.793-3.969
	C121.766,84.959,123.154,89.059,131.268,88.982L131.268,88.982z M87.967,88.613l3.385-9.011c-6.774-0.16-8.713-3.259-16.221-3.891
	l0.893,9.435C81.455,85.774,83.874,87.773,87.967,88.613L87.967,88.613z M131.268,14.646l-1.498,6.251h-0.789
	c-1.258-1.76-2.858-3.15-4.613-4.044c-1.842-0.92-3.705-1.367-5.752-1.367c-4.146,0-7.686,1.758-10.732,5.411
	c-2.961,3.602-4.511,7.805-4.511,12.612c0,4.571,1.44,8.727,4.3,12.271c3.049,3.811,6.747,5.701,11.053,5.701
	c1.807,0,3.75-0.393,5.797-1.287c1.367-0.604,3.203-1.602,5.41-3.02c0.233-0.079,0.6,0,1.098,0.154l-1.492,5.257
	c-1.973,0.867-4.02,1.551-6.118,1.867c-2.149,0.393-4.487,0.549-7.004,0.549c-5.592,0-10.446-1.367-14.694-4.123
	c-5.804-3.784-8.742-9.514-8.742-17.158c0-6.677,2.543-12.116,7.639-16.268c4.693-3.862,10.469-5.729,17.318-5.729
	c2.18,0,4.33,0.211,6.537,0.712C126.619,12.939,128.877,13.7,131.268,14.646z M51.299,39.266c0,4.257-1.704,7.962-5.191,11.112
	c-3.465,3.156-7.719,4.757-12.859,4.757c-4.912,0-9.343-0.997-13.253-3.047c-4.254-2.207-6.353-4.991-6.353-8.251V12.439h9.503
	v28.036c0,2.916,0.943,5.412,2.756,7.461c1.887,2.05,4.197,3.048,7.033,3.048c0.601,0,0.966,0,1.207,0
	c2.807,0,5.403-0.893,7.713-2.653c2.493-1.998,3.78-4.311,3.78-7.016V12.439h5.666v26.827H51.299z M86.469,34.929
	c-2.646-1.812-5.746-2.76-9.394-2.76l-0.103-0.5c3.195-0.365,6.008-1.47,8.502-3.311c2.492-1.761,3.75-3.86,3.75-6.147
	c0-2.652-1.207-4.858-3.596-6.726c-2.361-1.894-5.249-2.996-8.554-2.996H57.103v41.753h18.554c4.122,0,7.61-1.155,10.418-3.548
	c2.887-2.364,4.305-5.31,4.305-8.776C90.38,39.028,89.064,36.716,86.469,34.929z M66.286,16.038h3.568
	c0.943,0,1.841,0.104,2.653,0.314c1.179,0.343,2.229,0.892,3.15,1.681c1.521,1.315,2.31,2.916,2.31,4.808
	c0,1.973-0.656,3.757-1.887,5.31c-0.979,1.261-2.184,2.102-3.574,2.416c-0.555,0.186-1.155,0.237-1.761,0.237h-4.46L66.286,16.038
	L66.286,16.038z M76.578,48.543c-1.133,1.338-2.471,2.152-4.071,2.547c-0.606,0.157-1.264,0.209-1.916,0.209h-4.305V34.22H71.3
	c0.446,0,0.841,0.052,1.207,0.105c1.784,0.289,3.202,1.235,4.357,2.785c1.206,1.655,1.812,3.521,1.812,5.623
	C78.676,44.94,77.967,46.885,76.578,48.543z"/>
</svg>
