<?xml version="1.0" encoding="utf-8"?>
<!-- Generator: Adobe Illustrator 16.0.0, SVG Export Plug-In . SVG Version: 6.00 Build 0)  -->
<!DOCTYPE svg PUBLIC "-//W3C//DTD SVG 1.1//EN" "http://www.w3.org/Graphics/SVG/1.1/DTD/svg11.dtd">
<svg version="1.1" id="Layer_1" xmlns="http://www.w3.org/2000/svg" xmlns:xlink="http://www.w3.org/1999/xlink" x="0px" y="0px"
	 width="90px" height="62px" viewBox="0 41 90 62" enable-background="new 0 41 90 62" xml:space="preserve">
<path fill="#E92429" d="M53.207,71.508c0,4.734-2.432,6.783-6.336,6.783h-1.983V64.725h1.984c3.745,0,6.337,2.144,6.337,6.784
	L53.207,71.508z M90,41v62H0V41H90z M36.343,78.1h-8.67v-4.77h7.103l-0.704-4.383h-6.4v-4.063h8.384v-4.416h-13.76v22.08h14.047
	v-4.45V78.1z M58.711,71.475c0-6.56-4-11.007-11.68-11.007h-7.615v22.08h7.744C54.615,82.548,58.71,78.035,58.711,71.475
	L58.711,71.475z M67.575,60.468h-5.47v22.08h5.47V60.468z"/>
</svg>
