<?xml version="1.0" encoding="utf-8"?>
<!-- Generator: Adobe Illustrator 16.0.0, SVG Export Plug-In . SVG Version: 6.00 Build 0)  -->
<!DOCTYPE svg PUBLIC "-//W3C//DTD SVG 1.1//EN" "http://www.w3.org/Graphics/SVG/1.1/DTD/svg11.dtd">
<svg version="1.1" id="Layer_1" xmlns="http://www.w3.org/2000/svg" xmlns:xlink="http://www.w3.org/1999/xlink" x="0px" y="0px"
	 width="200px" height="200px" viewBox="0 0 200 200" enable-background="new 0 0 200 200" xml:space="preserve">
<title>neighCD_BarChart</title>
<g>
	<text transform="matrix(1 0 0 1 30.3652 33.1299)" fill="#0A0A0A" font-family="'OpenSans-Bold'" font-size="5.5">2004-07</text>
	<text transform="matrix(1 0 0 1 68.5801 33.1299)" fill="#5D5D5D" font-family="'OpenSans'" font-size="4.5">2007-09</text>
	<text transform="matrix(1 0 0 1 105.4453 33.1299)" fill="#5D5D5D" font-family="'OpenSans'" font-size="4.5">2009-11</text>
	<text transform="matrix(1 0 0 1 141.96 33.1299)" fill="#5D5D5D" font-family="'OpenSans'" font-size="4.5">2011-13</text>
	<text transform="matrix(1 0 0 1 174.1396 33.1299)" fill="#0A0A0A" font-family="'OpenSans-Bold'" font-size="5.5">2013-16</text>
	<line fill="none" stroke="#7B6E66" stroke-width="0.5" stroke-miterlimit="10" x1="40.515" y1="21.12" x2="183.314" y2="21.12"/>
	<line fill="none" stroke="#7B6E66" stroke-width="0.5" stroke-miterlimit="10" x1="42.585" y1="21.12" x2="40.515" y2="21.12"/>
	<g>
		<path fill="#FFFFFF" d="M44.045,21.12c0,1.949-1.581,3.53-3.53,3.53c-1.95,0-3.53-1.581-3.53-3.53c0-1.95,1.581-3.53,3.53-3.53
			l0,0C42.464,17.59,44.045,19.17,44.045,21.12"/>
		<circle fill="none" stroke="#7B6E66" stroke-width="0.5" stroke-miterlimit="10" cx="40.515" cy="21.12" r="3.53"/>
		<path fill="#FFFFFF" d="M79.95,21.12c0,1.949-1.581,3.53-3.53,3.53s-3.53-1.581-3.53-3.53c0-1.95,1.58-3.53,3.53-3.53l0,0
			C78.37,17.59,79.95,19.17,79.95,21.12"/>
		<circle fill="none" stroke="#7B6E66" stroke-width="0.5" stroke-miterlimit="10" cx="76.42" cy="21.12" r="3.53"/>
		<path fill="#FFFFFF" d="M115.855,21.12c0,1.949-1.581,3.53-3.53,3.53c-1.95,0-3.53-1.581-3.53-3.53c0-1.95,1.58-3.53,3.53-3.53
			l0,0C114.274,17.59,115.855,19.17,115.855,21.12"/>
		<circle fill="none" stroke="#7B6E66" stroke-width="0.5" stroke-miterlimit="10" cx="112.325" cy="21.12" r="3.53"/>
		<path fill="#FFFFFF" d="M151.75,21.12c0,1.949-1.58,3.53-3.53,3.53c-1.949,0-3.53-1.581-3.53-3.53s1.581-3.53,3.531-3.53
			c0.01,0,0.02,0,0.029,0C150.188,17.606,151.75,19.182,151.75,21.12"/>
		<circle fill="none" stroke="#7B6E66" stroke-width="0.5" stroke-miterlimit="10" cx="148.23" cy="21.12" r="3.53"/>
		<path fill="#FFFFFF" d="M187.67,20.73c0,1.95-1.58,3.53-3.529,3.53c-1.95,0-3.531-1.58-3.531-3.53s1.581-3.53,3.531-3.53l0,0
			C186.09,17.2,187.67,18.78,187.67,20.73"/>
		<circle fill="none" stroke="#7B6E66" stroke-width="0.5" stroke-miterlimit="10" cx="184.141" cy="20.73" r="3.53"/>
	</g>
	<text transform="matrix(1 0 0 1 30.625 12.1348)" fill="#0A0A0A" font-family="'OpenSans-Bold'" font-size="5.5">WAVE 2</text>
	<text transform="matrix(1 0 0 1 68.9551 12.1348)" fill="#5D5D5D" font-family="'OpenSans'" font-size="4.5">WAVE 3</text>
	<text transform="matrix(1 0 0 1 104.3496 12.1348)" fill="#5D5D5D" font-family="'OpenSans'" font-size="4.5">WAVE 4</text>
	<text transform="matrix(1 0 0 1 140.1152 12.1348)" fill="#5D5D5D" font-family="'OpenSans'" font-size="4.5">WAVE 5</text>
	<text transform="matrix(1 0 0 1 174.2754 12.1802)" fill="#0A0A0A" font-family="'OpenSans-Bold'" font-size="5.5">WAVE 6</text>
	<g>
		<path fill="#EC1C24" d="M186.75,20.785c0,1.438-1.166,2.605-2.605,2.605c-1.438,0-2.604-1.167-2.604-2.605
			c0-1.439,1.166-2.605,2.604-2.605l0,0C185.584,18.18,186.75,19.346,186.75,20.785"/>
		<path fill="#EC1C24" d="M43.12,21.12c-0.008,1.438-1.182,2.598-2.62,2.59s-2.598-1.181-2.59-2.62
			c0.008-1.433,1.172-2.59,2.605-2.59c1.438,0,2.605,1.167,2.605,2.605"/>
	</g>
</g>
<path fill="none" stroke="#D9D9D9" stroke-width="0.72" stroke-linejoin="round" d="M68.465,61.715v126.061 M97.25,61.715v126.061
	 M125.99,61.715v126.061 M154.79,61.715v126.061 M183.529,61.715v126.061"/>
<path fill="#D96936" d="M39.665,171.695h42.78v11.1h-42.78V171.695L39.665,171.695z M39.665,150.695h62.76v11.1h-62.76V150.695
	L39.665,150.695z M39.665,129.695h76.8v11.1h-76.8V129.695L39.665,129.695z M39.665,108.695h23.82v11.1h-23.82V108.695
	L39.665,108.695z M39.665,87.695h33.54v11.1h-33.54V87.695L39.665,87.695z M39.665,66.695h49.26v11.1h-49.26V66.695L39.665,66.695z"
	/>
<path fill="#B2B2B2" d="M82.445,171.695h89.22v11.1h-89.22V171.695L82.445,171.695z M102.445,150.695h61.66v11.1h-61.681v-11.1l0,0
	H102.445z M116.484,129.695h57.341v11.1h-57.36v-11.1l0,0H116.484z M63.485,108.695h77.34v11.1h-77.34V108.695L63.485,108.695z
	 M73.205,87.695h86.58v11.1h-86.58V87.695L73.205,87.695z M88.925,66.695h76.825v11.1H88.925V66.695L88.925,66.695z"/>
<path fill="#97D594" d="M171.665,171.695h11.88v11.1h-11.88V171.695L171.665,171.695z M164.105,150.695h19.439v11.1h-19.439V150.695
	L164.105,150.695z M173.825,129.695h9.72v11.1h-9.72V129.695L173.825,129.695z M140.825,108.695h42.72v11.1h-42.72V108.695
	L140.825,108.695z M159.785,87.695h23.76v11.1h-23.76V87.695L159.785,87.695z M165.725,66.695h17.82v11.1H165.75v-11.1l0,0H165.725z
	"/>
<line fill="none" stroke="#D9D9D9" stroke-width="0.72" stroke-linejoin="round" x1="39.665" y1="187.775" x2="39.665" y2="61.715"/>
<text transform="matrix(1 0 0 1 56.8901 178.875)" fill="#404040" font-family="'OpenSans'" font-size="4.5">30%</text>
<text transform="matrix(1 0 0 1 66.8398 157.8701)" fill="#404040" font-family="'OpenSans'" font-size="4.5">44%</text>
<text transform="matrix(1 0 0 1 73.9302 136.8652)" fill="#404040" font-family="'OpenSans'" font-size="4.5">54%</text>
<text transform="matrix(1 0 0 1 47.8501 115.8555)" fill="#404040" font-family="'OpenSans'" font-size="4.5">17%</text>
<text transform="matrix(1 0 0 1 52.48 94.8501)" fill="#404040" font-family="'OpenSans'" font-size="4.5">23%</text>
<text transform="matrix(1 0 0 1 58.1401 73.8398)" fill="#404040" font-family="'OpenSans'" font-size="4.5">34%</text>
<text transform="matrix(1 0 0 1 124.0703 178.875)" fill="#404040" font-family="'OpenSans'" font-size="4.5">62%</text>
<text transform="matrix(1 0 0 1 128.9707 157.8701)" fill="#404040" font-family="'OpenSans'" font-size="4.5">43%</text>
<text transform="matrix(1 0 0 1 140.9297 136.8652)" fill="#404040" font-family="'OpenSans'" font-size="4.5">40%</text>
<text transform="matrix(1 0 0 1 98.0552 115.8555)" fill="#404040" font-family="'OpenSans'" font-size="4.5">54%</text>
<text transform="matrix(1 0 0 1 112.1445 94.8501)" fill="#404040" font-family="'OpenSans'" font-size="4.5">60%</text>
<text transform="matrix(1 0 0 1 123.1406 73.8398)" fill="#404040" font-family="'OpenSans'" font-size="4.5">53%</text>
<text transform="matrix(1 0 0 1 174.6953 178.875)" fill="#404040" font-family="'OpenSans'" font-size="4.5">8%</text>
<text transform="matrix(1 0 0 1 170.1953 157.8701)" fill="#404040" font-family="'OpenSans'" font-size="4.5">14%</text>
<text transform="matrix(1 0 0 1 175.6602 136.8652)" fill="#404040" font-family="'OpenSans'" font-size="4.5">7%</text>
<text transform="matrix(1 0 0 1 158.0254 115.8555)" fill="#404040" font-family="'OpenSans'" font-size="4.5">30%</text>
<text transform="matrix(1 0 0 1 167.9102 94.8501)" fill="#404040" font-family="'OpenSans'" font-size="4.5">17%</text>
<text transform="matrix(1 0 0 1 170.8252 73.8398)" fill="#404040" font-family="'OpenSans'" font-size="4.5">12%</text>
<text transform="matrix(1 0 0 1 39.0698 194.8799)" fill="#595959" font-family="'OpenSans'" font-size="4.5">0</text>
<text transform="matrix(1 0 0 1 65.415 194.8799)" fill="#595959" font-family="'OpenSans'" font-size="4.5">20</text>
<text transform="matrix(1 0 0 1 94.1899 194.8799)" fill="#595959" font-family="'OpenSans'" font-size="4.5">40</text>
<text transform="matrix(1 0 0 1 122.96 194.8799)" fill="#595959" font-family="'OpenSans'" font-size="4.5">60</text>
<text transform="matrix(1 0 0 1 151.7344 194.8799)" fill="#595959" font-family="'OpenSans'" font-size="4.5">80</text>
<text transform="matrix(1 0 0 1 178.0752 194.8799)" fill="#595959" font-family="'OpenSans'" font-size="4.5">100</text>
<g>
	<text transform="matrix(1 0 0 1 28.645 178.5254)" fill="#595959" font-family="'OpenSans'" font-size="4.5">P</text>
	<text transform="matrix(1 0 0 1 31.3701 178.5254)" fill="#595959" font-family="'OpenSans'" font-size="4.5">H</text>
	<text transform="matrix(1 0 0 1 34.645 178.5254)" fill="#595959" font-family="'OpenSans'" font-size="4.5">Y</text>
	<text transform="matrix(1 0 0 1 28.3599 157.5156)" fill="#595959" font-family="'OpenSans'" font-size="4.5">S</text>
	<text transform="matrix(1 0 0 1 30.8052 157.5156)" fill="#595959" font-family="'OpenSans'" font-size="4.5">O</text>
	<text transform="matrix(1 0 0 1 34.3252 157.5156)" fill="#595959" font-family="'OpenSans'" font-size="4.5">C</text>
	<text transform="matrix(1 0 0 1 27.0801 136.5098)" fill="#595959" font-family="'OpenSans'" font-size="4.5">E</text>
	<text transform="matrix(1 0 0 1 29.605 136.5098)" fill="#595959" font-family="'OpenSans'" font-size="4.5">M</text>
	<text transform="matrix(1 0 0 1 33.665 136.5098)" fill="#595959" font-family="'OpenSans'" font-size="4.5">O</text>
	<text transform="matrix(1 0 0 1 28.585 115.5)" fill="#595959" font-family="'OpenSans'" font-size="4.5">L</text>
	<text transform="matrix(1 0 0 1 30.9502 115.5)" fill="#595959" font-family="'OpenSans'" font-size="4.5">A</text>
	<text transform="matrix(1 0 0 1 33.7749 115.5)" fill="#595959" font-family="'OpenSans'" font-size="4.5">N</text>
	<text transform="matrix(1 0 0 1 26.7402 94.4951)" fill="#595959" font-family="'OpenSans'" font-size="4.5">C</text>
	<text transform="matrix(1 0 0 1 29.5801 94.4951)" fill="#595959" font-family="'OpenSans'" font-size="4.5">O</text>
	<text transform="matrix(1 0 0 1 33.1001 94.4951)" fill="#595959" font-family="'OpenSans'" font-size="4.5">M</text>
	<text transform="matrix(1 0 0 1 6.27 73.4849)" fill="#595959" font-family="'OpenSans'" font-size="4.5">O</text>
	<text transform="matrix(1 0 0 1 9.7949 73.4849)" fill="#595959" font-family="'OpenSans'" font-size="4.5">N</text>
	<text transform="matrix(1 0 0 1 13.165 73.4849)" fill="#595959" font-family="'OpenSans'" font-size="4.5">E</text>
	<text transform="matrix(1 0 0 1 15.645 73.4849)" fill="#595959" font-family="'OpenSans'" font-size="4.5"> </text>
	<text transform="matrix(1 0 0 1 16.8149 73.4849)" fill="#595959" font-family="'OpenSans'" font-size="4.5">O</text>
	<text transform="matrix(1 0 0 1 20.3452 73.4849)" fill="#595959" font-family="'OpenSans'" font-size="4.5">R</text>
	<text transform="matrix(1 0 0 1 23.1201 73.4849)" fill="#595959" font-family="'OpenSans'" font-size="4.5"> </text>
	<text transform="matrix(1 0 0 1 24.29 73.4849)" fill="#595959" font-family="'OpenSans'" font-size="4.5">M</text>
	<text transform="matrix(1 0 0 1 28.355 73.4849)" fill="#595959" font-family="'OpenSans'" font-size="4.5">O</text>
	<text transform="matrix(1 0 0 1 31.8848 73.4849)" fill="#595959" font-family="'OpenSans'" font-size="4.5">R</text>
	<text transform="matrix(1 0 0 1 34.6602 73.4849)" fill="#595959" font-family="'OpenSans'" font-size="4.5">E</text>
</g>
<g>
	<polygon fill="#D96936" points="30.365,49.055 32.825,49.055 32.825,51.515 30.365,51.515 30.365,49.055 	"/>
	<text transform="matrix(1 0 0 1 33.8652 51.5498)" fill="#595959" font-family="'OpenSans'" font-size="4.5">Meaningful Increase</text>
</g>
<g>
	<polygon fill="#B2B2B2" points="85.499,49.04 87.954,49.04 87.954,51.5 85.499,51.5 85.499,49.04 	"/>
	<text transform="matrix(1 0 0 1 89.0083 51.5298)" fill="#595959" font-family="'OpenSans'" font-size="4.5">No Meaningful Change</text>
</g>
<g>
	<polygon fill="#97D594" points="147.406,49.04 149.866,49.04 149.866,51.5 147.406,51.5 147.406,49.04 	"/>
	<text transform="matrix(1 0 0 1 150.4512 51.5298)" fill="#595959" font-family="'OpenSans'" font-size="4.5">Meaningful Decrease</text>
</g>
</svg>
