<svg id="Layer_1" data-name="Layer 1" xmlns="http://www.w3.org/2000/svg" viewBox="0 0 331.2 89">
  <title>scaleLine</title>
  <g>
    <polyline points="80.66 42.35 135.43 43.8 190.21 35.58 244.98 24.46 299.75 28.8" style="fill: none;stroke: #74c476;stroke-linejoin: round;stroke-width: 1.07000005245209px"/>
    <text transform="translate(65.32 33.86)" style="font-size: 10.350000381469727px;fill: #74c476;font-family: Open Sans">12.0%</text>
    <text transform="translate(120.18 35.58)" style="font-size: 10.350000381469727px;fill: #74c476;font-family: Open Sans">11.7%</text>
    <text transform="translate(175.33 26.63)" style="font-size: 10.350000381469727px;fill: #74c476;font-family: Open Sans">13.4%</text>
    <text transform="translate(230.06 16.67)" style="font-size: 10.350000381469727px;fill: #74c476;font-family: Open Sans">15.7%</text>
    <text transform="translate(285.53 20.44)" style="font-size: 10.350000381469727px;fill: #74c476;font-family: Open Sans">14.8%</text>
    <path d="M78.07,42.46A2.59,2.59,0,1,1,80.66,45a2.6,2.6,0,0,1-2.59-2.59" style="fill: #75c276"/>
    <path d="M132.11,43.8a2.59,2.59,0,1,1,2.59,2.59,2.6,2.6,0,0,1-2.59-2.59" style="fill: #75c276"/>
    <path d="M187.27,35.58a2.58,2.58,0,1,1,2.59,2.59,2.59,2.59,0,0,1-2.59-2.59" style="fill: #75c276"/>
    <path d="M242,24.73a2.59,2.59,0,1,1,2.59,2.59A2.6,2.6,0,0,1,242,24.73" style="fill: #75c276"/>
    <path d="M297.46,28.83A2.59,2.59,0,1,1,300,31.42a2.59,2.59,0,0,1-2.59-2.59" style="fill: #75c276"/>
  </g>
  <g>
    <g>
      <text transform="translate(62.62 75.68)" style="font-size: 9px;fill: #4d4e4e;font-family: Open Sans;font-weight: 700">W<tspan x="7.98" y="0">A</tspan><tspan x="13.21" y="0">VE 2</tspan><tspan x="31.31" y="0" style="fill: #58595b"> </tspan></text>
      <text transform="translate(117.38 75.68)" style="font-size: 9px;fill: #4d4e4e;font-family: Open Sans;font-weight: 700">W<tspan x="7.98" y="0">A</tspan><tspan x="13.21" y="0">VE 3</tspan></text>
      <text transform="translate(172.61 75.68)" style="font-size: 9px;fill: #4d4e4e;font-family: Open Sans;font-weight: 700">W<tspan x="7.98" y="0">A</tspan><tspan x="13.21" y="0">VE 4</tspan></text>
      <text transform="translate(227.33 75.68)" style="font-size: 9px;fill: #4d4e4e;font-family: Open Sans;font-weight: 700">W<tspan x="7.98" y="0">A</tspan><tspan x="13.21" y="0">VE 5</tspan></text>
      <text transform="translate(282.82 75.68)" style="font-size: 9px;fill: #4d4e4e;font-family: Open Sans;font-weight: 700">W<tspan x="7.98" y="0">A</tspan><tspan x="13.21" y="0">VE 6</tspan></text>
    </g>
    <g>
      <text transform="translate(61.39 87.53)" style="font-size: 9px;fill: #4d4e4e;font-family: Open Sans">2004-07</text>
      <text transform="translate(116.15 87.53)" style="font-size: 9px;fill: #4d4e4e;font-family: Open Sans">2007-09</text>
      <text transform="translate(171.38 87.53)" style="font-size: 9px;fill: #4d4e4e;font-family: Open Sans">2009-11</text>
      <text transform="translate(226.1 87.53)" style="font-size: 9px;fill: #4d4e4e;font-family: Open Sans">2011-13</text>
      <text transform="translate(281.59 87.53)" style="font-size: 9px;fill: #4d4e4e;font-family: Open Sans">2013-16</text>
    </g>
  </g>
</svg>
