<svg id="Layer_1" data-name="Layer 1" xmlns="http://www.w3.org/2000/svg" viewBox="0 0 331.2 89">
  <title>scaleLine</title>
  <g>
    <polyline points="79.91 37.46 135.16 43.27 190.41 42.3 245.66 48.58 300.91 46.65" style="fill: none;stroke: #c51b8a;stroke-linejoin: round;stroke-width: 1.07000005245209px"/>
    <text transform="translate(67.39 29.43)" style="font-size: 10.350000381469727px;fill: #c51b8a;font-family: Open Sans">11.3%</text>
    <text transform="translate(120.15 35.53)" style="font-size: 10.350000381469727px;fill: #c51b8a;font-family: Open Sans">10.1%</text>
    <text transform="translate(174.91 34.01)" style="font-size: 10.350000381469727px;fill: #c51b8a;font-family: Open Sans">10.3%</text>
    <text transform="translate(233.63 40.39)" style="font-size: 10.350000381469727px;fill: #c51b8a;font-family: Open Sans">9.0%</text>
    <text transform="translate(289.38 39.17)" style="font-size: 10.350000381469727px;fill: #c51b8a;font-family: Open Sans">9.4%</text>
    <path d="M79.32,37.8a2.59,2.59,0,1,1,2.59,2.59,2.6,2.6,0,0,1-2.59-2.59" style="fill: #c51b8a"/>
    <path d="M132.07,43.39A2.59,2.59,0,1,1,134.66,46a2.6,2.6,0,0,1-2.59-2.59" style="fill: #c51b8a"/>
    <path d="M186.84,42.29a2.58,2.58,0,1,1,2.59,2.59,2.59,2.59,0,0,1-2.59-2.59" style="fill: #c51b8a"/>
    <path d="M242.6,48.57a2.59,2.59,0,1,1,2.59,2.59,2.59,2.59,0,0,1-2.59-2.59" style="fill: #c51b8a"/>
    <path d="M298.35,46.61a2.59,2.59,0,1,1,2.59,2.59,2.6,2.6,0,0,1-2.59-2.59" style="fill: #c51b8a"/>
  </g>
  <g>
    <g>
      <text transform="translate(62.62 75.68)" style="font-size: 9px;fill: #4d4e4e;font-family: Open Sans;font-weight: 700">W<tspan x="7.98" y="0">A</tspan><tspan x="13.21" y="0">VE 2</tspan><tspan x="31.31" y="0" style="fill: #58595b"> </tspan></text>
      <text transform="translate(117.38 75.68)" style="font-size: 9px;fill: #4d4e4e;font-family: Open Sans;font-weight: 700">W<tspan x="7.98" y="0">A</tspan><tspan x="13.21" y="0">VE 3</tspan></text>
      <text transform="translate(172.61 75.68)" style="font-size: 9px;fill: #4d4e4e;font-family: Open Sans;font-weight: 700">W<tspan x="7.98" y="0">A</tspan><tspan x="13.21" y="0">VE 4</tspan></text>
      <text transform="translate(227.33 75.68)" style="font-size: 9px;fill: #4d4e4e;font-family: Open Sans;font-weight: 700">W<tspan x="7.98" y="0">A</tspan><tspan x="13.21" y="0">VE 5</tspan></text>
      <text transform="translate(282.82 75.68)" style="font-size: 9px;fill: #4d4e4e;font-family: Open Sans;font-weight: 700">W<tspan x="7.98" y="0">A</tspan><tspan x="13.21" y="0">VE 6</tspan></text>
    </g>
    <g>
      <text transform="translate(61.39 87.53)" style="font-size: 9px;fill: #4d4e4e;font-family: Open Sans">2004-07</text>
      <text transform="translate(116.15 87.53)" style="font-size: 9px;fill: #4d4e4e;font-family: Open Sans">2007-09</text>
      <text transform="translate(171.38 87.53)" style="font-size: 9px;fill: #4d4e4e;font-family: Open Sans">2009-11</text>
      <text transform="translate(226.1 87.53)" style="font-size: 9px;fill: #4d4e4e;font-family: Open Sans">2011-13</text>
      <text transform="translate(281.59 87.53)" style="font-size: 9px;fill: #4d4e4e;font-family: Open Sans">2013-16</text>
    </g>
  </g>
</svg>
