<svg id="Layer_1" data-name="Layer 1" xmlns="http://www.w3.org/2000/svg" viewBox="0 0 331.2 89">
  <title>scaleLine</title>
  <g>
    <polyline points="79.07 47.25 134.21 50.15 189.36 41.45 244.5 36.13 299.65 35.64" style="fill: none;stroke: #3182bd;stroke-linejoin: round;stroke-width: 1.07000005245209px"/>
    <text transform="translate(66.66 38.51)" style="font-size: 10.350000381469727px;fill: #3182bd;font-family: Open Sans">13.3%</text>
    <text transform="translate(119.19 42.01)" style="font-size: 10.350000381469727px;fill: #3182bd;font-family: Open Sans">12.7%</text>
    <text transform="translate(176.01 32.78)" style="font-size: 10.350000381469727px;fill: #3182bd;font-family: Open Sans">14.5%</text>
    <text transform="translate(229.54 27.86)" style="font-size: 10.350000381469727px;fill: #3182bd;font-family: Open Sans">15.6%</text>
    <text transform="translate(286.27 27.86)" style="font-size: 10.350000381469727px;fill: #3182bd;font-family: Open Sans">15.7%</text>
    <path d="M78.59,47.24a2.59,2.59,0,1,1,2.59,2.59,2.6,2.6,0,0,1-2.59-2.59" style="fill: #3182bd"/>
    <path d="M131.53,50.14a2.59,2.59,0,1,1,2.59,2.59,2.59,2.59,0,0,1-2.59-2.59" style="fill: #3182bd"/>
    <path d="M187.53,41.58a2.58,2.58,0,1,1,2.59,2.58,2.59,2.59,0,0,1-2.59-2.58" style="fill: #3182bd"/>
    <path d="M241.05,36.28a2.59,2.59,0,1,1,2.59,2.59,2.6,2.6,0,0,1-2.59-2.59" style="fill: #3182bd"/>
    <path d="M297.37,35.71A2.59,2.59,0,1,1,300,38.3a2.6,2.6,0,0,1-2.59-2.59" style="fill: #3182bd"/>
  </g>
  <g>
    <g>
      <text transform="translate(62.62 75.68)" style="font-size: 9px;fill: #4d4e4e;font-family: Open Sans;font-weight: 700">W<tspan x="7.98" y="0">A</tspan><tspan x="13.21" y="0">VE 2</tspan><tspan x="31.31" y="0" style="fill: #58595b"> </tspan></text>
      <text transform="translate(117.38 75.68)" style="font-size: 9px;fill: #4d4e4e;font-family: Open Sans;font-weight: 700">W<tspan x="7.98" y="0">A</tspan><tspan x="13.21" y="0">VE 3</tspan></text>
      <text transform="translate(172.61 75.68)" style="font-size: 9px;fill: #4d4e4e;font-family: Open Sans;font-weight: 700">W<tspan x="7.98" y="0">A</tspan><tspan x="13.21" y="0">VE 4</tspan></text>
      <text transform="translate(227.33 75.68)" style="font-size: 9px;fill: #4d4e4e;font-family: Open Sans;font-weight: 700">W<tspan x="7.98" y="0">A</tspan><tspan x="13.21" y="0">VE 5</tspan></text>
      <text transform="translate(282.82 75.68)" style="font-size: 9px;fill: #4d4e4e;font-family: Open Sans;font-weight: 700">W<tspan x="7.98" y="0">A</tspan><tspan x="13.21" y="0">VE 6</tspan></text>
    </g>
    <g>
      <text transform="translate(61.39 87.53)" style="font-size: 9px;fill: #4d4e4e;font-family: Open Sans">2004-07</text>
      <text transform="translate(116.15 87.53)" style="font-size: 9px;fill: #4d4e4e;font-family: Open Sans">2007-09</text>
      <text transform="translate(171.38 87.53)" style="font-size: 9px;fill: #4d4e4e;font-family: Open Sans">2009-11</text>
      <text transform="translate(226.1 87.53)" style="font-size: 9px;fill: #4d4e4e;font-family: Open Sans">2011-13</text>
      <text transform="translate(281.59 87.53)" style="font-size: 9px;fill: #4d4e4e;font-family: Open Sans">2013-16</text>
    </g>
  </g>
</svg>
