<svg id="Layer_1" data-name="Layer 1" xmlns="http://www.w3.org/2000/svg" viewBox="0 0 331.2 273.6">
  <title>subscaleLine</title>
  <g>
    <g>
      <path d="M51.73,238.43H327.5m-275.77-36H327.5m-275.77-36H327.5m-275.77-72H327.5m-275.77-36H327.5m-275.77-36H327.5" style="fill: none;stroke: #d9d9d9;stroke-linejoin: round;stroke-width: 0.75px"/>
      <line x1="51.73" y1="130.36" x2="327.5" y2="130.36" style="fill: none;stroke: #d9d9d9;stroke-linejoin: round"/>
      <polyline points="79.31 130.36 134.46 135.53 189.64 112.8 244.76 87.27 299.92 84.2" style="fill: none;stroke: #c6dbee;stroke-linecap: round;stroke-linejoin: round"/>
      <path d="M81.82,130.33a2.59,2.59,0,1,1-2.59-2.59,2.59,2.59,0,0,1,2.59,2.59" style="fill: #c6dbee"/>
      <path d="M137,135.43a2.59,2.59,0,1,1-2.59-2.59,2.59,2.59,0,0,1,2.59,2.59" style="fill: #c6dbee"/>
      <path d="M192.13,112.77a2.59,2.59,0,1,1-2.59-2.59,2.59,2.59,0,0,1,2.59,2.59" style="fill: #c6dbee"/>
      <path d="M247.32,87.24a2.59,2.59,0,1,1-2.59-2.59,2.59,2.59,0,0,1,2.59,2.59" style="fill: #c6dbee"/>
      <path d="M302.44,84.16a2.59,2.59,0,1,1-2.59-2.59,2.59,2.59,0,0,1,2.59,2.59" style="fill: #c6dbee"/>
      <polyline points="79.31 130.36 134.46 142.64 189.64 124.63 244.76 101.4 299.92 92.25" style="fill: none;stroke: #6badd6;stroke-linecap: round;stroke-linejoin: round"/>
      <path d="M81.82,130.33a2.59,2.59,0,1,1-2.59-2.59,2.59,2.59,0,0,1,2.59,2.59" style="fill: #6badd6"/>
      <path d="M137,142.57a2.59,2.59,0,1,1-2.59-2.59,2.59,2.59,0,0,1,2.59,2.59" style="fill: #6badd6"/>
      <path d="M192.13,124.59a2.59,2.59,0,1,1-2.59-2.59,2.59,2.59,0,0,1,2.59,2.59" style="fill: #6badd6"/>
      <path d="M247.32,101.37a2.59,2.59,0,1,1-2.59-2.59,2.59,2.59,0,0,1,2.59,2.59" style="fill: #6badd6"/>
      <path d="M302.44,92.2a2.59,2.59,0,1,1-2.59-2.59,2.59,2.59,0,0,1,2.59,2.59" style="fill: #6badd6"/>
      <polyline points="79.31 130.36 134.46 137.46 189.64 127.42 244.76 108.33 299.92 103.04" style="fill: none;stroke: #3182bd;stroke-linecap: round;stroke-linejoin: round"/>
      <path d="M81.82,130.26a2.59,2.59,0,1,1-2.59-2.59,2.59,2.59,0,0,1,2.59,2.59" style="fill: #3182bd"/>
      <path d="M137,137.39a2.59,2.59,0,1,1-2.59-2.59,2.59,2.59,0,0,1,2.59,2.59" style="fill: #3182bd"/>
      <path d="M192.13,127.32a2.59,2.59,0,1,1-2.59-2.59,2.59,2.59,0,0,1,2.59,2.59" style="fill: #3182bd"/>
      <path d="M247.32,108.29a2.59,2.59,0,1,1-2.59-2.59,2.59,2.59,0,0,1,2.59,2.59" style="fill: #3182bd"/>
      <path d="M302.44,103a2.59,2.59,0,1,1-2.59-2.59,2.59,2.59,0,0,1,2.59,2.59" style="fill: #3182bd"/>
      <polyline points="79.31 130.36 134.46 138.54 189.64 139.8 244.76 146.29 299.92 130.23" style="fill: none;stroke: #07529c;stroke-linecap: round;stroke-linejoin: round"/>
      <path d="M81.82,130.26a2.59,2.59,0,1,1-2.59-2.59,2.59,2.59,0,0,1,2.59,2.59" style="fill: #07529c"/>
      <path d="M137,138.44a2.59,2.59,0,1,1-2.59-2.59,2.59,2.59,0,0,1,2.59,2.59" style="fill: #07529c"/>
      <path d="M192.13,139.77a2.59,2.59,0,1,1-2.59-2.59,2.59,2.59,0,0,1,2.59,2.59" style="fill: #07529c"/>
      <path d="M247.32,146.2a2.59,2.59,0,1,1-2.59-2.59,2.59,2.59,0,0,1,2.59,2.59" style="fill: #07529c"/>
      <path d="M302.44,130.19a2.59,2.59,0,1,1-2.59-2.59,2.59,2.59,0,0,1,2.59,2.59" style="fill: #07529c"/>
      <text transform="translate(30.76 24.28)" style="font-size: 6.994772911071777px;fill: #595959;font-family: Open Sans">-<tspan x="2.27" y="0">0</tspan><tspan x="6.23" y="0">.</tspan><tspan x="8.13" y="0">3</tspan><tspan x="12.08" y="0">0</tspan></text>
      <text transform="translate(30.76 60.3)" style="font-size: 6.994772911071777px;fill: #595959;font-family: Open Sans">-<tspan x="2.27" y="0">0</tspan><tspan x="6.23" y="0">.</tspan><tspan x="8.13" y="0">2</tspan><tspan x="12.08" y="0">0</tspan></text>
      <text transform="translate(30.76 96.32)" style="font-size: 6.994772911071777px;fill: #595959;font-family: Open Sans">-<tspan x="2.27" y="0">0</tspan><tspan x="6.23" y="0">.</tspan><tspan x="8.13" y="0">1</tspan><tspan x="12.08" y="0">0</tspan></text>
      <text transform="translate(32.9 132.35)" style="font-size: 6.994772911071777px;fill: #595959;font-family: Open Sans">0<tspan x="4.02" y="0">.</tspan><tspan x="5.85" y="0">0</tspan><tspan x="9.87" y="0">0</tspan></text>
      <text transform="translate(32.9 168.37)" style="font-size: 6.994772911071777px;fill: #595959;font-family: Open Sans">0<tspan x="4.02" y="0">.</tspan><tspan x="5.85" y="0">1</tspan><tspan x="9.87" y="0">0</tspan></text>
      <text transform="translate(32.9 204.39)" style="font-size: 6.994772911071777px;fill: #595959;font-family: Open Sans">0<tspan x="4.02" y="0">.</tspan><tspan x="5.85" y="0">2</tspan><tspan x="9.87" y="0">0</tspan></text>
      <text transform="translate(46.15 112.96)" style="font-size: 8px;fill: #595a5c;font-family: Open Sans">Provincial average <tspan x="18.02" y="9.6">(Wave 2)</tspan></text>
      <g>
        <line x1="15.12" y1="20.42" x2="15.12" y2="239.24" style="fill: none;stroke: #d9d9d8;stroke-miterlimit: 10;stroke-width: 4px"/>
        <polygon points="9.13 22.17 15.12 11.81 21.1 22.17 9.13 22.17" style="fill: #d9d9d8"/>
        <polygon points="9.13 237.49 15.12 247.85 21.1 237.49 9.13 237.49" style="fill: #d9d9d8"/>
      </g>
      <g>
        <line x1="15.12" y1="20.42" x2="15.12" y2="239.24" style="fill: none;stroke: #d9d9d8;stroke-miterlimit: 10;stroke-width: 4px"/>
        <polygon points="9.13 22.17 15.12 11.81 21.1 22.17 9.13 22.17" style="fill: #d9d9d8"/>
        <polygon points="9.13 237.49 15.12 247.85 21.1 237.49 9.13 237.49" style="fill: #d9d9d8"/>
      </g>
      <text transform="translate(1.99 7.91)" style="font-size: 9px;fill: #595a5c;font-family: Open Sans">Worse</text>
      <text transform="translate(2.99 258.91)" style="font-size: 9px;fill: #595a5c;font-family: Open Sans">Better</text>
    </g>
    <g>
      <g>
        <text transform="translate(62.62 259.21)" style="font-size: 9px;fill: #4e4f4f;font-family: Open Sans;font-weight: 700">W<tspan x="7.98" y="0">A</tspan><tspan x="13.21" y="0">VE 2</tspan><tspan x="31.31" y="0" style="fill: #595a5c"> </tspan></text>
        <text transform="translate(117.38 259.21)" style="font-size: 9px;fill: #4e4f4f;font-family: Open Sans;font-weight: 700">W<tspan x="7.98" y="0">A</tspan><tspan x="13.21" y="0">VE 3</tspan></text>
        <text transform="translate(172.61 259.21)" style="font-size: 9px;fill: #4e4f4f;font-family: Open Sans;font-weight: 700">W<tspan x="7.98" y="0">A</tspan><tspan x="13.21" y="0">VE 4</tspan></text>
        <text transform="translate(227.33 259.21)" style="font-size: 9px;fill: #4e4f4f;font-family: Open Sans;font-weight: 700">W<tspan x="7.98" y="0">A</tspan><tspan x="13.21" y="0">VE 5</tspan></text>
        <text transform="translate(282.82 259.21)" style="font-size: 9px;fill: #4e4f4f;font-family: Open Sans;font-weight: 700">W<tspan x="7.98" y="0">A</tspan><tspan x="13.21" y="0">VE 6</tspan></text>
      </g>
      <g>
        <text transform="translate(61.39 271.06)" style="font-size: 9px;fill: #4e4f4f;font-family: Open Sans">2004-07</text>
        <text transform="translate(116.15 271.06)" style="font-size: 9px;fill: #4e4f4f;font-family: Open Sans">2007-09</text>
        <text transform="translate(171.38 271.06)" style="font-size: 9px;fill: #4e4f4f;font-family: Open Sans">2009-11</text>
        <text transform="translate(226.1 271.06)" style="font-size: 9px;fill: #4e4f4f;font-family: Open Sans">2011-13</text>
        <text transform="translate(281.59 271.06)" style="font-size: 9px;fill: #4e4f4f;font-family: Open Sans">2013-16</text>
      </g>
    </g>
  </g>
</svg>
