<svg id="Layer_1" data-name="Layer 1" xmlns="http://www.w3.org/2000/svg" viewBox="0 0 331.2 273.6">
  <title>subscaleLine</title>
  <g>
    <g>
      <path d="M52.68,240.12H327.74m-275.06-36H327.74m-275.06-36H327.74M52.68,96.31H327.74m-275.06-36H327.74m-275.06-36H327.74" style="fill: none;stroke: #d9d9d9;stroke-linejoin: round;stroke-width: 0.75px"/>
      <line x1="52.68" y1="132.25" x2="327.74" y2="132.25" style="fill: none;stroke: #d9d9d9;stroke-linejoin: round"/>
      <polyline points="80.19 132.25 135.19 141.22 190.24 136.53 245.22 156.96 300.24 156.53" style="fill: none;stroke: #fac5c0;stroke-linecap: round;stroke-linejoin: round"/>
      <path d="M82.7,132.16a2.59,2.59,0,1,1-2.59-2.59,2.59,2.59,0,0,1,2.59,2.59" style="fill: #fac5c0"/>
      <path d="M137.75,141.11a2.59,2.59,0,1,1-2.59-2.59,2.59,2.59,0,0,1,2.59,2.59" style="fill: #fac5c0"/>
      <path d="M192.73,136.42a2.59,2.59,0,1,1-2.59-2.59,2.59,2.59,0,0,1,2.59,2.59" style="fill: #fac5c0"/>
      <path d="M247.77,156.92a2.59,2.59,0,1,1-2.59-2.59,2.59,2.59,0,0,1,2.59,2.59" style="fill: #fac5c0"/>
      <path d="M302.75,156.43a2.59,2.59,0,1,1-2.59-2.59,2.59,2.59,0,0,1,2.59,2.59" style="fill: #fac5c0"/>
      <polyline points="80.19 132.26 135.19 156.6 190.24 164.44 245.22 172.11 300.24 163.53" style="fill: none;stroke: #f27cac;stroke-linecap: round;stroke-linejoin: round"/>
      <path d="M82.7,132.16a2.59,2.59,0,1,1-2.59-2.59,2.59,2.59,0,0,1,2.59,2.59" style="fill: #f27cac"/>
      <path d="M137.75,156.5a2.59,2.59,0,1,1-2.59-2.59,2.59,2.59,0,0,1,2.59,2.59" style="fill: #f27cac"/>
      <path d="M192.73,164.33a2.59,2.59,0,1,1-2.59-2.59,2.59,2.59,0,0,1,2.59,2.59" style="fill: #f27cac"/>
      <path d="M247.77,172a2.59,2.59,0,1,1-2.59-2.59,2.59,2.59,0,0,1,2.59,2.59" style="fill: #f27cac"/>
      <path d="M302.75,163.42a2.59,2.59,0,1,1-2.59-2.59,2.59,2.59,0,0,1,2.59,2.59" style="fill: #f27cac"/>
      <polyline points="80.19 132.26 135.19 151.01 190.24 152.34 245.22 178.59 300.24 168.7" style="fill: none;stroke: #c51c89;stroke-linecap: round;stroke-linejoin: round"/>
      <path d="M82.7,132.16a2.59,2.59,0,1,1-2.59-2.59,2.59,2.59,0,0,1,2.59,2.59" style="fill: #c51c89"/>
      <path d="M137.75,151a2.59,2.59,0,1,1-2.59-2.59,2.59,2.59,0,0,1,2.59,2.59" style="fill: #c51c89"/>
      <path d="M192.73,152.3a2.59,2.59,0,1,1-2.59-2.59,2.59,2.59,0,0,1,2.59,2.59" style="fill: #c51c89"/>
      <path d="M247.77,178.53a2.59,2.59,0,1,1-2.59-2.59,2.59,2.59,0,0,1,2.59,2.59" style="fill: #c51c89"/>
      <path d="M302.75,168.6a2.59,2.59,0,1,1-2.59-2.59,2.59,2.59,0,0,1,2.59,2.59" style="fill: #c51c89"/>
      <polyline points="80.19 132.25 135.19 168.71 190.24 159.12 245.22 173.04 300.24 177.59" style="fill: none;stroke: #772775;stroke-linecap: round;stroke-linejoin: round"/>
      <path d="M82.7,132.16a2.59,2.59,0,1,1-2.59-2.59,2.59,2.59,0,0,1,2.59,2.59" style="fill: #772775"/>
      <path d="M137.75,168.67a2.59,2.59,0,1,1-2.59-2.59,2.59,2.59,0,0,1,2.59,2.59" style="fill: #772775"/>
      <path d="M192.73,159a2.59,2.59,0,1,1-2.59-2.59,2.59,2.59,0,0,1,2.59,2.59" style="fill: #772775"/>
      <path d="M247.77,172.94a2.59,2.59,0,1,1-2.59-2.59,2.59,2.59,0,0,1,2.59,2.59" style="fill: #772775"/>
      <path d="M302.75,177.55a2.59,2.59,0,1,1-2.59-2.59,2.59,2.59,0,0,1,2.59,2.59" style="fill: #772775"/>
      <text transform="translate(31.71 26.38)" style="font-size: 6.994772911071777px;fill: #595959;font-family: Open Sans">-<tspan x="2.27" y="0">0</tspan><tspan x="6.23" y="0">.</tspan><tspan x="8.13" y="0">3</tspan><tspan x="12.08" y="0">0</tspan></text>
      <text transform="translate(31.71 62.33)" style="font-size: 6.994772911071777px;fill: #595959;font-family: Open Sans">-<tspan x="2.27" y="0">0</tspan><tspan x="6.23" y="0">.</tspan><tspan x="8.13" y="0">2</tspan><tspan x="12.08" y="0">0</tspan></text>
      <text transform="translate(31.71 98.28)" style="font-size: 6.994772911071777px;fill: #595959;font-family: Open Sans">-<tspan x="2.27" y="0">0</tspan><tspan x="6.23" y="0">.</tspan><tspan x="8.13" y="0">1</tspan><tspan x="12.08" y="0">0</tspan></text>
      <text transform="translate(33.85 134.24)" style="font-size: 6.994772911071777px;fill: #595959;font-family: Open Sans">0<tspan x="4.02" y="0">.</tspan><tspan x="5.85" y="0">0</tspan><tspan x="9.87" y="0">0</tspan></text>
      <text transform="translate(33.85 170.19)" style="font-size: 6.994772911071777px;fill: #595959;font-family: Open Sans">0<tspan x="4.02" y="0">.</tspan><tspan x="5.85" y="0">1</tspan><tspan x="9.87" y="0">0</tspan></text>
      <text transform="translate(33.85 206.14)" style="font-size: 6.994772911071777px;fill: #595959;font-family: Open Sans">0<tspan x="4.02" y="0">.</tspan><tspan x="5.85" y="0">2</tspan><tspan x="9.87" y="0">0</tspan></text>
      <text transform="translate(47.1 114.65)" style="font-size: 8px;fill: #595a5c;font-family: Open Sans">Provincial average <tspan x="18.02" y="9.6">(Wave 2)</tspan></text>
      <g>
        <line x1="16.07" y1="22.11" x2="16.07" y2="240.93" style="fill: none;stroke: #d9d9d8;stroke-miterlimit: 10;stroke-width: 4px"/>
        <polygon points="10.08 23.86 16.07 13.5 22.05 23.86 10.08 23.86" style="fill: #d9d9d8"/>
        <polygon points="10.08 239.18 16.07 249.55 22.05 239.18 10.08 239.18" style="fill: #d9d9d8"/>
      </g>
      <g>
        <line x1="16.07" y1="22.11" x2="16.07" y2="240.93" style="fill: none;stroke: #d9d9d8;stroke-miterlimit: 10;stroke-width: 4px"/>
        <polygon points="10.08 23.86 16.07 13.5 22.05 23.86 10.08 23.86" style="fill: #d9d9d8"/>
        <polygon points="10.08 239.18 16.07 249.55 22.05 239.18 10.08 239.18" style="fill: #d9d9d8"/>
      </g>
      <text transform="translate(3.46 9.6)" style="font-size: 9px;fill: #595a5c;font-family: Open Sans">Worse</text>
      <text transform="translate(3.46 260.6)" style="font-size: 9px;fill: #595a5c;font-family: Open Sans">Better</text>
    </g>
    <g>
      <g>
        <text transform="translate(62.62 261.14)" style="font-size: 9px;fill: #4e4f4f;font-family: Open Sans;font-weight: 700">W<tspan x="7.98" y="0">A</tspan><tspan x="13.21" y="0">VE 2</tspan><tspan x="31.31" y="0" style="fill: #595a5c"> </tspan></text>
        <text transform="translate(117.38 261.14)" style="font-size: 9px;fill: #4e4f4f;font-family: Open Sans;font-weight: 700">W<tspan x="7.98" y="0">A</tspan><tspan x="13.21" y="0">VE 3</tspan></text>
        <text transform="translate(172.61 261.14)" style="font-size: 9px;fill: #4e4f4f;font-family: Open Sans;font-weight: 700">W<tspan x="7.98" y="0">A</tspan><tspan x="13.21" y="0">VE 4</tspan></text>
        <text transform="translate(227.33 261.14)" style="font-size: 9px;fill: #4e4f4f;font-family: Open Sans;font-weight: 700">W<tspan x="7.98" y="0">A</tspan><tspan x="13.21" y="0">VE 5</tspan></text>
        <text transform="translate(282.82 261.14)" style="font-size: 9px;fill: #4e4f4f;font-family: Open Sans;font-weight: 700">W<tspan x="7.98" y="0">A</tspan><tspan x="13.21" y="0">VE 6</tspan></text>
      </g>
      <g>
        <text transform="translate(61.39 272.99)" style="font-size: 9px;fill: #4e4f4f;font-family: Open Sans">2004-07</text>
        <text transform="translate(116.15 272.99)" style="font-size: 9px;fill: #4e4f4f;font-family: Open Sans">2007-09</text>
        <text transform="translate(171.38 272.99)" style="font-size: 9px;fill: #4e4f4f;font-family: Open Sans">2009-11</text>
        <text transform="translate(226.1 272.99)" style="font-size: 9px;fill: #4e4f4f;font-family: Open Sans">2011-13</text>
        <text transform="translate(281.59 272.99)" style="font-size: 9px;fill: #4e4f4f;font-family: Open Sans">2013-16</text>
      </g>
    </g>
  </g>
</svg>
