<svg id="Version_2" data-name="Version 2" xmlns="http://www.w3.org/2000/svg" viewBox="0 0 497.36 294.84">
  <title>vulnComplexBarChart</title>
  <g>
    <path d="M309.5,182h43.18v95.71H309.5V182Zm-77.38-6.32H275.3v102H232.13v-102Zm-77.38,5h43.18v97.07H154.75V180.67Zm-77.38,4.89h43.18v92.19H77.38V185.55ZM0,180.67H43.18v97.07H0V180.67Z" style="fill: #adb9ca"/>
    <path d="M309.5,127.86h43.18V182H309.5V127.86Zm-77.38-8.48H275.3v56.33H232.13V119.38Zm-77.38,10.56h43.18v50.72H154.75V129.95Zm-77.38,7h43.18v48.57H77.38V137ZM0,131.38H43.18v49.28H0V131.38Z" style="fill: #8497b0"/>
    <path d="M309.5,91.94h43.18v35.92H309.5V91.94Zm-77.38-4.89H275.3v32.33H232.13V87.06ZM154.75,98.33h43.18v31.61H154.75V98.33Zm-77.38,9.84h43.18V137H77.38V108.18ZM0,102.5H43.18v28.88H0V102.5Z" style="fill: #7086a4"/>
    <path d="M309.5,68.74h43.18V91.94H309.5V68.74Zm-77.38-3.52H275.3V87.06H232.13V65.21Zm-77.38,12h43.18V98.33H154.75V77.21ZM77.38,89.14h43.18v19H77.38v-19ZM0,82.1H43.18v20.4H0V82.1Z" style="fill: #556a85"/>
    <path d="M309.5,50.42h43.18V68.74H309.5V50.42Zm-77.38-2.08H275.3V65.21H232.13V48.33ZM154.75,61h43.18V77.21H154.75V61ZM77.38,75.06h43.18V89.14H77.38V75.06ZM0,67.37H43.18V82.1H0V67.37Z" style="fill: #45546b"/>
    <text transform="translate(14.63 232.2)" style="font-size: 8px;fill: #fff;font-family: Open Sans">13.8</text>
    <text transform="translate(92 234.66)" style="font-size: 8px;fill: #fff;font-family: Open Sans">13.1</text>
    <text transform="translate(169.38 232.2)" style="font-size: 8px;fill: #fff;font-family: Open Sans">13.8</text>
    <text transform="translate(246.75 229.73)" style="font-size: 8px;fill: #fff;font-family: Open Sans">14.5</text>
    <text transform="translate(324.13 232.9)" style="font-size: 8px;fill: #fff;font-family: Open Sans">13.6</text>
    <text transform="translate(18 159.02)" style="font-size: 8px;fill: #fff;font-family: Open Sans">7</text>
    <text transform="translate(93.37 164.29)" style="font-size: 8px;fill: #fff;font-family: Open Sans">6.9</text>
    <text transform="translate(170.75 158.31)" style="font-size: 8px;fill: #fff;font-family: Open Sans">7.2</text>
    <text transform="translate(250.13 150.57)" style="font-size: 8px;fill: #fff;font-family: Open Sans">8</text>
    <text transform="translate(325.5 157.96)" style="font-size: 8px;fill: #fff;font-family: Open Sans">7.7</text>
    <text transform="translate(15.99 119.96)" style="font-size: 8px;fill: #fff;font-family: Open Sans">4.1</text>
    <text transform="translate(93.37 125.59)" style="font-size: 8px;fill: #fff;font-family: Open Sans">4.1</text>
    <text transform="translate(170.75 117.15)" style="font-size: 8px;fill: #fff;font-family: Open Sans">4.5</text>
    <text transform="translate(248.12 106.24)" style="font-size: 8px;fill: #fff;font-family: Open Sans">4.6</text>
    <text transform="translate(325.5 112.93)" style="font-size: 8px;fill: #fff;font-family: Open Sans">5.1</text>
    <text transform="translate(15.99 95.33)" style="font-size: 8px;fill: #fff;font-family: Open Sans">2.9</text>
    <text transform="translate(93.37 101.67)" style="font-size: 8px;fill: #fff;font-family: Open Sans">2.7</text>
    <text transform="translate(172.76 90.76)" style="font-size: 8px;fill: #fff;font-family: Open Sans">3</text>
    <text transform="translate(248.12 79.15)" style="font-size: 8px;fill: #fff;font-family: Open Sans">3.1</text>
    <text transform="translate(325.5 83.37)" style="font-size: 8px;fill: #fff;font-family: Open Sans">3.3</text>
    <text transform="translate(15.99 77.74)" style="font-size: 8px;fill: #fff;font-family: Open Sans">2.1</text>
    <text transform="translate(95.38 85.13)" style="font-size: 8px;fill: #fff;font-family: Open Sans">2</text>
    <text transform="translate(170.75 72.11)" style="font-size: 8px;fill: #fff;font-family: Open Sans">2.3</text>
    <text transform="translate(248.12 59.8)" style="font-size: 8px;fill: #fff;font-family: Open Sans">2.4</text>
    <text transform="translate(325.5 62.61)" style="font-size: 8px;fill: #fff;font-family: Open Sans">2.6</text>
    <text transform="translate(3.71 292.4)" style="font-size: 9px;fill: #595959;font-family: Open Sans">Wave 2</text>
    <text transform="translate(82.21 292.4)" style="font-size: 9px;fill: #595959;font-family: Open Sans">Wave 3</text>
    <text transform="translate(159.71 292.4)" style="font-size: 9px;fill: #595959;font-family: Open Sans">Wave 4</text>
    <text transform="translate(235.71 292.4)" style="font-size: 9px;fill: #595959;font-family: Open Sans">Wave 5</text>
    <text transform="translate(314.71 292.4)" style="font-size: 9px;fill: #595959;font-family: Open Sans">Wave 6</text>
    <g>
      <rect x="212.02" y="2.64" width="5.55" height="5.55" style="fill: #adb9ca"/>
      <rect x="230.94" y="2.64" width="5.55" height="5.55" style="fill: #8497b0"/>
      <rect x="249.86" y="2.64" width="5.55" height="5.55" style="fill: #7086a4"/>
      <rect x="268.77" y="2.64" width="5.55" height="5.55" style="fill: #556a85"/>
      <rect x="287.7" y="2.64" width="5.55" height="5.55" style="fill: #45546b"/>
      <text transform="translate(55.37 8.19)" style="font-size: 9.555179595947266px;fill: #595959;font-family: Open Sans">NUMBER OF VULNERABILITIES</text>
      <text transform="translate(219.92 8.25)" style="font-size: 9px;fill: #595959;font-family: Open Sans">1</text>
      <text transform="translate(238.84 8.25)" style="font-size: 9px;fill: #595959;font-family: Open Sans">2</text>
      <text transform="translate(257.76 8.25)" style="font-size: 9px;fill: #595959;font-family: Open Sans">3</text>
      <text transform="translate(276.68 8.25)" style="font-size: 9px;fill: #595959;font-family: Open Sans">4</text>
      <text transform="translate(295.6 8.25)" style="font-size: 9px;fill: #595959;font-family: Open Sans">5</text>
    </g>
    <text transform="translate(7.71 56.77)" style="font-size: 9px;fill: #595959;font-family: Open Sans">29.9%</text>
    <text transform="translate(379.38 232.2)" style="font-size: 9px;fill: #595959;font-family: Open Sans">Vulnerable on 1 scale</text>
    <text transform="translate(379.38 157.31)" style="font-size: 9px;fill: #595959;font-family: Open Sans">Vulnerable on 2 scales</text>
    <text transform="translate(379.38 112.14)" style="font-size: 9px;fill: #595959;font-family: Open Sans">Vulnerable on 3 scales</text>
    <text transform="translate(379.38 83.53)" style="font-size: 9px;fill: #595959;font-family: Open Sans">Vulnerable on 4 scales</text>
    <text transform="translate(379.38 61.71)" style="font-size: 9px;fill: #595959;font-family: Open Sans">Vulnerable on 5 scales</text>
    <text transform="translate(379.38 40.05)" style="font-size: 9px;fill: #595959;font-family: Open Sans">Overall vulnerability rate</text>
    <line x1="19.93" y1="65.65" x2="19.93" y2="59.98" style="fill: none;stroke: #d9d9d9;stroke-linejoin: round;stroke-width: 0.75px"/>
    <text transform="translate(85.89 64.77)" style="font-size: 9px;fill: #595959;font-family: Open Sans">28.8%</text>
    <line x1="98.11" y1="73.65" x2="98.11" y2="67.98" style="fill: none;stroke: #d9d9d9;stroke-linejoin: round;stroke-width: 0.75px"/>
    <text transform="translate(163.27 50.33)" style="font-size: 9px;fill: #595959;font-family: Open Sans">30.8%</text>
    <line x1="175.49" y1="59.21" x2="175.49" y2="53.54" style="fill: none;stroke: #d9d9d9;stroke-linejoin: round;stroke-width: 0.75px"/>
    <text transform="translate(240.65 37.45)" style="font-size: 9px;fill: #595959;font-family: Open Sans">32.6%</text>
    <line x1="252.86" y1="46.33" x2="252.86" y2="40.66" style="fill: none;stroke: #d9d9d9;stroke-linejoin: round;stroke-width: 0.75px"/>
    <text transform="translate(318.02 40.05)" style="font-size: 9px;fill: #595959;font-family: Open Sans">32.3%</text>
    <line x1="330.24" y1="48.93" x2="330.24" y2="43.26" style="fill: none;stroke: #d9d9d9;stroke-linejoin: round;stroke-width: 0.75px"/>
    <line x1="349.79" y1="37.45" x2="372.26" y2="37.45" style="fill: none;stroke: #d9d9d9;stroke-linejoin: round;stroke-width: 0.75px"/>
    <polyline points="356.79 182.59 372.26 182.59 372.26 277.74 356.79 277.74" style="fill: none;stroke: #d9d9d9;stroke-linejoin: round;stroke-width: 0.75px"/>
    <polyline points="356.79 128.93 372.26 128.93 372.26 180.44 356.79 180.44" style="fill: none;stroke: #d9d9d9;stroke-linejoin: round;stroke-width: 0.75px"/>
    <polyline points="356.79 93.09 372.26 93.09 372.26 126.43 356.79 126.43" style="fill: none;stroke: #d9d9d9;stroke-linejoin: round;stroke-width: 0.75px"/>
    <polyline points="356.79 69.26 372.26 69.26 372.26 90.76 356.79 90.76" style="fill: none;stroke: #d9d9d9;stroke-linejoin: round;stroke-width: 0.75px"/>
    <polyline points="356.79 50.41 372.26 50.41 372.26 67.51 356.79 67.51" style="fill: none;stroke: #d9d9d9;stroke-linejoin: round;stroke-width: 0.75px"/>
  </g>
</svg>
